<?xml version="1.0" encoding="UTF-8" standalone="no"?>
<!DOCTYPE svg PUBLIC "-//W3C//DTD SVG 1.1//EN" "http://www.w3.org/Graphics/SVG/1.1/DTD/svg11.dtd">
<svg width="100%" height="100%" viewBox="0 0 40 40" version="1.1" xmlns="http://www.w3.org/2000/svg" xmlns:xlink="http://www.w3.org/1999/xlink" xml:space="preserve" xmlns:serif="http://www.serif.com/" style="fill-rule:evenodd;clip-rule:evenodd;stroke-linejoin:round;stroke-miterlimit:2;">
    <g transform="matrix(0.962753,0,0,0.962753,8.23515,2.37993)">
        <g>
            <g transform="matrix(1,0,0,1,-3.9,-3.54)">
                <path d="M16.11,8.83C16.106,8.83 16.103,8.83 16.099,8.83C12.308,8.83 9.189,11.949 9.189,15.74C9.189,18.393 10.718,20.822 13.11,21.97L13.11,37.14C13.11,38.786 14.464,40.14 16.11,40.14C17.756,40.14 19.11,38.786 19.11,37.14L19.11,22C21.502,20.852 23.031,18.423 23.031,15.77C23.031,11.979 19.912,8.86 16.121,8.86C16.117,8.86 16.114,8.86 16.11,8.86L16.11,8.83ZM16.11,15.42C14.788,15.42 13.7,14.332 13.7,13.01C13.7,11.688 14.788,10.6 16.11,10.6C17.428,10.6 18.515,11.682 18.52,13C18.52,13.003 18.52,13.007 18.52,13.01C18.52,14.332 17.432,15.42 16.11,15.42C16.11,15.42 16.11,15.42 16.11,15.42Z" style="fill:white;fill-rule:nonzero;"/>
            </g>
            <g transform="matrix(1,0,0,1,-3.9,-3.54)">
                <path d="M25.44,15.71C25.442,17.907 24.662,20.035 23.24,21.71C23.33,22.195 23.602,22.628 24,22.92C24.411,23.248 24.939,23.392 25.46,23.32C25.513,23.326 25.567,23.326 25.62,23.32C27.348,21.162 28.29,18.478 28.29,15.713C28.29,9.037 22.796,3.543 16.12,3.543C9.444,3.543 3.95,9.037 3.95,15.713C3.95,18.478 4.892,21.162 6.62,23.32C7.114,23.362 7.606,23.22 8,22.92C8.415,22.603 8.683,22.129 8.74,21.61C8.797,21.091 8.74,21.55 8.74,21.52C7.432,19.867 6.727,17.817 6.74,15.71C6.74,10.57 10.97,6.34 16.11,6.34C21.25,6.34 25.48,10.57 25.48,15.71C25.48,15.71 25.44,15.71 25.44,15.71Z" style="fill:white;fill-rule:nonzero;"/>
            </g>
        </g>
    </g>
</svg>
