<?xml version="1.0" encoding="UTF-8" standalone="no"?>
<!DOCTYPE svg PUBLIC "-//W3C//DTD SVG 1.1//EN" "http://www.w3.org/Graphics/SVG/1.1/DTD/svg11.dtd">
<svg width="100%" height="100%" viewBox="0 0 100 40" version="1.1" xmlns="http://www.w3.org/2000/svg" xmlns:xlink="http://www.w3.org/1999/xlink" xml:space="preserve" xmlns:serif="http://www.serif.com/" style="fill-rule:evenodd;clip-rule:evenodd;stroke-linejoin:round;stroke-miterlimit:2;">
    <g transform="matrix(1,0,0,1,-26.6662,8.6112)">
        <g>
            <g transform="matrix(32,0,0,32,27.924,21.0021)">
                <path d="M0.041,0.002C0.028,0.002 0.019,0 0.013,-0.003C0.007,-0.006 0.004,-0.01 0.004,-0.015C0.004,-0.017 0.004,-0.019 0.005,-0.021C0.005,-0.023 0.005,-0.025 0.006,-0.028L0.189,-0.683C0.191,-0.69 0.195,-0.695 0.202,-0.698C0.209,-0.701 0.218,-0.702 0.229,-0.702L0.261,-0.702C0.273,-0.702 0.282,-0.701 0.289,-0.698C0.295,-0.695 0.299,-0.69 0.301,-0.683L0.483,-0.028C0.484,-0.025 0.484,-0.023 0.485,-0.021C0.486,-0.019 0.486,-0.017 0.486,-0.015C0.486,-0.01 0.483,-0.006 0.477,-0.003C0.471,0 0.462,0.002 0.449,0.002L0.432,0.002C0.423,0.002 0.415,0.001 0.408,-0.002C0.401,-0.004 0.397,-0.008 0.396,-0.014L0.259,-0.528C0.256,-0.537 0.254,-0.548 0.253,-0.559C0.251,-0.57 0.249,-0.58 0.248,-0.589L0.243,-0.589C0.241,-0.58 0.239,-0.57 0.237,-0.559C0.236,-0.548 0.234,-0.537 0.231,-0.528L0.093,-0.014C0.092,-0.008 0.088,-0.004 0.081,-0.002C0.074,0.001 0.066,0.002 0.057,0.002L0.041,0.002ZM0.103,-0.18L0.103,-0.254L0.387,-0.254L0.387,-0.18L0.103,-0.18Z" style="fill:white;fill-rule:nonzero;"/>
            </g>
            <g transform="matrix(32,0,0,32,43.604,21.0021)">
                <path d="M0.296,0.006C0.224,0.006 0.17,-0.011 0.133,-0.045C0.096,-0.079 0.077,-0.129 0.077,-0.195L0.077,-0.68C0.077,-0.687 0.08,-0.693 0.086,-0.697C0.093,-0.7 0.103,-0.702 0.118,-0.702L0.126,-0.702C0.141,-0.702 0.152,-0.7 0.158,-0.697C0.164,-0.693 0.167,-0.687 0.167,-0.68L0.167,-0.188C0.167,-0.149 0.178,-0.12 0.201,-0.1C0.224,-0.08 0.255,-0.07 0.296,-0.07C0.336,-0.07 0.367,-0.08 0.39,-0.1C0.413,-0.12 0.424,-0.149 0.424,-0.188L0.424,-0.68C0.424,-0.687 0.427,-0.693 0.434,-0.697C0.44,-0.7 0.45,-0.702 0.465,-0.702L0.473,-0.702C0.488,-0.702 0.499,-0.7 0.505,-0.697C0.511,-0.693 0.514,-0.687 0.514,-0.68L0.514,-0.195C0.514,-0.129 0.496,-0.079 0.459,-0.045C0.422,-0.011 0.367,0.006 0.296,0.006Z" style="fill:white;fill-rule:nonzero;"/>
            </g>
            <g transform="matrix(32,0,0,32,62.484,21.0021)">
                <path d="M0.213,0.002C0.2,0.002 0.19,-0 0.184,-0.004C0.178,-0.008 0.175,-0.013 0.175,-0.02L0.175,-0.624L0.031,-0.624C0.018,-0.624 0.012,-0.634 0.012,-0.654L0.012,-0.67C0.012,-0.69 0.018,-0.7 0.031,-0.7L0.407,-0.7C0.42,-0.7 0.427,-0.69 0.427,-0.67L0.427,-0.654C0.427,-0.634 0.42,-0.624 0.407,-0.624L0.265,-0.624L0.265,-0.02C0.265,-0.013 0.262,-0.008 0.256,-0.004C0.25,-0 0.24,0.002 0.227,0.002L0.213,0.002Z" style="fill:white;fill-rule:nonzero;"/>
            </g>
            <g transform="matrix(32,0,0,32,76.532,21.0021)">
                <path d="M0.123,0.002C0.108,0.002 0.098,-0 0.092,-0.004C0.085,-0.008 0.082,-0.013 0.082,-0.02L0.082,-0.68C0.082,-0.687 0.085,-0.693 0.092,-0.697C0.098,-0.7 0.108,-0.702 0.123,-0.702L0.131,-0.702C0.146,-0.702 0.157,-0.7 0.163,-0.697C0.169,-0.693 0.172,-0.687 0.172,-0.68L0.172,-0.397L0.409,-0.397L0.409,-0.68C0.409,-0.687 0.412,-0.693 0.419,-0.697C0.425,-0.7 0.435,-0.702 0.45,-0.702L0.458,-0.702C0.473,-0.702 0.484,-0.7 0.49,-0.697C0.496,-0.693 0.499,-0.687 0.499,-0.68L0.499,-0.02C0.499,-0.013 0.496,-0.008 0.49,-0.004C0.484,-0 0.473,0.002 0.458,0.002L0.45,0.002C0.435,0.002 0.425,-0 0.419,-0.004C0.412,-0.008 0.409,-0.013 0.409,-0.02L0.409,-0.321L0.172,-0.321L0.172,-0.02C0.172,-0.013 0.169,-0.008 0.163,-0.004C0.157,-0 0.146,0.002 0.131,0.002L0.123,0.002Z" style="fill:white;fill-rule:nonzero;"/>
            </g>
            <g transform="matrix(20,0,0,20,95.124,21.0021)">
                <path d="M0.113,-0C0.092,-0 0.082,-0.01 0.082,-0.03L0.082,-0.68C0.082,-0.687 0.085,-0.693 0.092,-0.697C0.098,-0.7 0.108,-0.702 0.123,-0.702L0.131,-0.702C0.146,-0.702 0.157,-0.7 0.163,-0.697C0.169,-0.693 0.172,-0.687 0.172,-0.68L0.172,-0.076L0.359,-0.076C0.372,-0.076 0.379,-0.066 0.379,-0.046L0.379,-0.03C0.379,-0.01 0.372,-0 0.359,-0L0.113,-0Z" style="fill:white;fill-rule:nonzero;"/>
            </g>
            <g transform="matrix(20,0,0,20,102.864,21.0021)">
                <path d="M0.124,0.002C0.109,0.002 0.099,-0 0.093,-0.004C0.086,-0.008 0.083,-0.013 0.083,-0.02L0.083,-0.68C0.083,-0.687 0.086,-0.693 0.093,-0.697C0.099,-0.7 0.109,-0.702 0.124,-0.702L0.132,-0.702C0.147,-0.702 0.158,-0.7 0.164,-0.697C0.17,-0.693 0.173,-0.687 0.173,-0.68L0.173,-0.02C0.173,-0.013 0.17,-0.008 0.164,-0.004C0.158,-0 0.147,0.002 0.132,0.002L0.124,0.002Z" style="fill:white;fill-rule:nonzero;"/>
            </g>
            <g transform="matrix(20,0,0,20,107.964,21.0021)">
                <path d="M0.213,0.002C0.2,0.002 0.19,-0 0.184,-0.004C0.178,-0.008 0.175,-0.013 0.175,-0.02L0.175,-0.624L0.031,-0.624C0.018,-0.624 0.012,-0.634 0.012,-0.654L0.012,-0.67C0.012,-0.69 0.018,-0.7 0.031,-0.7L0.407,-0.7C0.42,-0.7 0.427,-0.69 0.427,-0.67L0.427,-0.654C0.427,-0.634 0.42,-0.624 0.407,-0.624L0.265,-0.624L0.265,-0.02C0.265,-0.013 0.262,-0.008 0.256,-0.004C0.25,-0 0.24,0.002 0.227,0.002L0.213,0.002Z" style="fill:white;fill-rule:nonzero;"/>
            </g>
            <g transform="matrix(20,0,0,20,116.744,21.0021)">
                <path d="M0.113,-0C0.092,-0 0.082,-0.01 0.082,-0.03L0.082,-0.67C0.082,-0.69 0.092,-0.7 0.113,-0.7L0.396,-0.7C0.409,-0.7 0.416,-0.69 0.416,-0.67L0.416,-0.654C0.416,-0.634 0.409,-0.624 0.396,-0.624L0.172,-0.624L0.172,-0.396L0.373,-0.396C0.386,-0.396 0.393,-0.386 0.393,-0.366L0.393,-0.35C0.393,-0.33 0.386,-0.32 0.373,-0.32L0.172,-0.32L0.172,-0.076L0.396,-0.076C0.409,-0.076 0.416,-0.066 0.416,-0.046L0.416,-0.03C0.416,-0.01 0.409,-0 0.396,-0L0.113,-0Z" style="fill:white;fill-rule:nonzero;"/>
            </g>
        </g>
    </g>
</svg>
