<?xml version="1.0" encoding="utf-8"?>
<!-- Generator: Adobe Illustrator 23.0.2, SVG Export Plug-In . SVG Version: 6.00 Build 0)  -->
<svg version="1.1" id="Layer_1" xmlns="http://www.w3.org/2000/svg" xmlns:xlink="http://www.w3.org/1999/xlink" x="0px" y="0px"
	 viewBox="0 0 239.6 55.7" style="enable-background:new 0 0 239.6 55.7;" xml:space="preserve">
<style type="text/css">
	.st0{fill:none;stroke:#00A651;stroke-width:1.0716;stroke-miterlimit:10;}
	.st1{fill:none;stroke:#00A651;stroke-width:1.6861;stroke-miterlimit:10;}
	.st2{fill:#FFFFFF;}
	.st3{fill:#00AEEF;}
</style>
<path class="st0" d="M38.5,26.3"/>
<g>
	<path class="st1" d="M23.2,2.7c11.1,0,20,11.3,20.1,25.4c0,0,0,0,0,0.1"/>
	<path class="st1" d="M5.1,17.1c0.1-0.3,0.3-0.7,0.4-1c2.2-5.2,5.8-9.3,10.1-11.5"/>
	<path class="st1" d="M3.2,28.1c0-2.3,0.2-4.5,0.7-6.5c0.1-0.5,0.2-0.9,0.3-1.4c0.2-0.6,0.3-1.2,0.5-1.7"/>
	<path class="st1" d="M31.5,12.2c-2.4-2-5.2-3.1-8.3-3.1c-8.3,0-15,8.5-15,19.1"/>
	<path class="st1" d="M38.3,28.1c0-5.2-1.6-9.9-4.3-13.3"/>
	<path class="st1" d="M23.2,15.4c5.5,0,10,5.7,10,12.7"/>
	<path class="st1" d="M16.4,18.8c0.5-0.6,1.1-1.2,1.7-1.7c1.5-1.1,3.2-1.8,5.1-1.8"/>
	<path class="st1" d="M13.2,28.1c0-2.9,0.8-5.6,2.1-7.8c0.1-0.1,0.2-0.3,0.3-0.4"/>
	<path class="st1" d="M27.6,24.9c-0.1-0.2-0.2-0.5-0.4-0.7c-0.9-1.5-2.4-2.5-4-2.5c-2.8,0-5,2.8-5,6.4"/>
	<path class="st1" d="M28.2,28.1"/>
	<path class="st1" d="M42.8,35.6"/>
	<path class="st1" d="M33.9,49.6c2.8-6.4,4.4-13.7,4.4-21.6"/>
	<path class="st1" d="M33.3,28.1c0,9.7-2.8,18.5-7.5,25.2"/>
	<path class="st1" d="M18.8,52.9c5.7-5.8,9.4-14.8,9.4-24.8"/>
	<path class="st1" d="M23.2,28.1c0,9.4-4,17.6-10,22"/>
	<path class="st1" d="M17.8,32.7c0.3-1.5,0.4-3,0.4-4.6"/>
	<path class="st1" d="M15.7,38.6c0.4-0.7,0.7-1.5,1-2.3c0.1-0.3,0.2-0.6,0.3-0.9"/>
	<path class="st1" d="M8.8,45.8c2-1,3.8-2.6,5.3-4.6c0.3-0.3,0.5-0.7,0.7-1.1"/>
	<path class="st1" d="M13.2,28.1C13.2,34,10,39,5.7,40.4"/>
	<path class="st1" d="M3.8,34.4c2.5-0.4,4.4-3.1,4.4-6.3"/>
	<path class="st1" d="M3.8,34.4"/>
</g>
<g>
	<path class="st2" d="M52,5.6c1.8-2.3,4.6-3.5,8.2-3.5c3.7,0,6.5,1.2,8.4,3.5c1.8,2.3,2.8,5.4,2.8,9.3v25.8c0,3.9-0.9,7-2.8,9.3
		c-1.8,2.3-4.6,3.5-8.4,3.5c-3.6,0-6.4-1.2-8.2-3.5c-1.8-2.3-2.8-5.4-2.8-9.3V14.8C49.2,11,50.1,7.9,52,5.6z M54.4,47.7
		c1.2,1.7,3.2,2.6,5.8,2.6c2.7,0,4.7-0.9,5.9-2.6c1.3-1.7,1.9-4,1.9-6.9V14.6c0-2.9-0.6-5.2-1.9-6.9c-1.3-1.7-3.3-2.6-5.9-2.6
		c-2.6,0-4.6,0.9-5.8,2.6c-1.2,1.7-1.9,4-1.9,6.9v26.2C52.5,43.7,53.1,46,54.4,47.7z"/>
	<path class="st2" d="M76.8,52.9V2.5h4.3L96.3,45V2.5h3v50.4h-3.7L79.9,8v44.9H76.8z"/>
	<path class="st2" d="M122.1,28.8h-13.8v21h16.6v3H105V2.5h19.9v3h-16.6v20.3h13.8V28.8z"/>
	<path class="st2" d="M132.6,52.9h-3l11-50.5h4.8l11.2,50.5h-3.3l-2.5-11.2h-15.7L132.6,52.9z M150.3,38.9l-7.4-32.6l-7.3,32.6
		H150.3z"/>
	<path class="st2" d="M166.6,47.7c1.2,1.7,3.1,2.6,5.8,2.6c2.6,0,4.6-0.9,5.8-2.6c1.2-1.7,1.8-4.1,1.8-7V2.5h3.1v38.1
		c0,3.8-0.9,6.9-2.6,9.3c-1.8,2.3-4.5,3.5-8.1,3.5c-3.6,0-6.4-1.2-8.1-3.5c-1.8-2.3-2.7-5.4-2.7-9.3V2.5h3.3v38.2
		C164.8,43.7,165.4,46,166.6,47.7z"/>
	<path class="st2" d="M197.2,5.5H187v-3h23.8v3h-10.3v47.4h-3.3V5.5z"/>
	<path class="st2" d="M218.2,52.9h-3.3V2.5h3.3v23.7h15.7V2.5h3.4v50.4h-3.4V29.2h-15.7V52.9z"/>
</g>
<path class="st3" d="M41.4,59.2"/>
</svg>
