<?xml version="1.0" encoding="utf-8"?>
<!-- Generator: Adobe Illustrator 23.0.2, SVG Export Plug-In . SVG Version: 6.00 Build 0)  -->
<svg version="1.1" id="Layer_1" xmlns="http://www.w3.org/2000/svg" xmlns:xlink="http://www.w3.org/1999/xlink" x="0px" y="0px"
	 viewBox="0 0 205 73" style="enable-background:new 0 0 205 73;" xml:space="preserve">
<style type="text/css">
	.st0{fill:#FFFFFF;}
	.st1{fill:#27AAE1;}
	.st2{fill:#F05C5B;}
	.st3{fill:none;stroke:#FFFFFF;stroke-width:9.75;stroke-miterlimit:10;}
</style>
<path class="st0" d="M144.15,69.47h-12.6V59.25h-0.28c-2.61,3.83-5.83,6.86-9.66,9.1c-3.83,2.24-8.03,3.36-12.6,3.36
	c-4.85,0-9.24-0.93-13.16-2.8s-7.23-4.46-9.94-7.77c-2.71-3.31-4.76-7.12-6.16-11.41c-1.4-4.29-2.1-8.77-2.1-13.44
	c0-4.48,0.72-8.8,2.17-12.95c1.45-4.15,3.52-7.84,6.23-11.06c2.71-3.22,5.97-5.74,9.8-7.56c3.83-1.82,8.07-2.73,12.74-2.73
	c4.76,0,9.08,1.14,12.95,3.43c3.87,2.29,7.12,5.44,9.73,9.45h0.28V3.95h12.6V69.47z M126.58,53.65c3.78-4.57,5.67-10.22,5.67-16.94
	c0-6.63-1.91-12.2-5.74-16.73c-3.83-4.53-9.01-6.79-15.54-6.79c-6.25,0-11.27,2.31-15.05,6.93c-3.78,4.62-5.67,10.15-5.67,16.59
	c0,6.53,1.87,12.13,5.6,16.8c3.73,4.67,8.77,7,15.12,7C117.6,60.51,122.8,58.22,126.58,53.65z"/>
<path class="st0" d="M187.17,3.94h15.74L178.04,34.2l26.25,35.3h-16.43l-20.95-29.47h-0.17v29.47h-12.78V3.94h12.78v27.65h0.17
	L187.17,3.94z"/>
<polygon class="st1" points="38.61,-3.52 37.96,-3.52 37.96,-3.52 38.61,-3.52 "/>
<path class="st2" d="M27.73,23.36c2.64-1.82,5.83-2.89,9.27-2.89c3.44,0,6.63,1.07,9.27,2.89l6.29-7.49
	c-4.35-3.23-9.73-5.15-15.56-5.15c-5.82,0-11.21,1.92-15.56,5.15L27.73,23.36z"/>
<rect x="32.13" y="37.77" class="st0" width="9.75" height="25.61"/>
<circle class="st3" cx="37.01" cy="36.82" r="30.9"/>
<polygon class="st1" points="37.33,-3.54 36.68,-3.54 36.68,-3.54 37.33,-3.54 "/>
<circle class="st0" cx="37.01" cy="33.15" r="7.75"/>
</svg>
