<?xml version="1.0" encoding="utf-8"?>
<!-- Generator: Adobe Illustrator 23.0.2, SVG Export Plug-In . SVG Version: 6.00 Build 0)  -->
<svg version="1.1" id="Layer_1" xmlns="http://www.w3.org/2000/svg" xmlns:xlink="http://www.w3.org/1999/xlink" x="0px" y="0px"
	 viewBox="0 0 480 480" style="enable-background:new 0 0 480 480;" xml:space="preserve">
<style type="text/css">
	.st0{fill:#FFFFFF;}
</style>
<g>
	<path class="st0" d="M139.9,126.5c-13.5,0.7-24.2,6-32.2,15.9c-8,9.9-12.2,22.9-12.7,39.1c0,1.2,0,3.9,0,8.1
		c0,4.2,0.7,8.7,2.2,13.6c7.7,24.3,26.5,36.9,56.4,37.6c4.6,0.2,8.4,0.4,11.6,0.4c3.1,0,5.7-0.1,7.6-0.4v3.6
		c-7.7,0-15.4,4.1-23.1,12.3c-2.6,2.9-5.2,5.8-7.6,8.9c-2.4,3-11,15.1-25.7,36.3c-14.7,21.2-23.7,33.7-26.9,37.4
		c-3.3,3.7-7.1,7.6-11.6,11.6c-4.5,4-11.1,7.8-20.1,11.6c-8.9,3.7-18.6,5.6-28.9,5.6H9v-3.6c8,0,15.4-1.7,22.4-5.1
		c3.1-1.4,6.3-3.4,9.4-5.8c3.1-2.4,6-4.9,8.7-7.4c2.7-2.5,7.1-7.2,13.4-14.1c6.3-6.9,19.8-25.1,40.5-54.8
		c3.9-5.3,8.3-10.4,13.2-15.4c4.9-4.9,9.2-8.3,12.8-9.9c-17.1,0-31.6-7.1-43.6-21.2c-11.9-14.1-17.9-30.9-17.9-50.3
		c0-19.4,6.3-35.2,18.8-47.4c12.5-12.2,29.8-18.3,51.7-18.3h97.6v3.6h-4.7c-6.3,0-11.6,2.2-16.1,6.7c-4.5,4.5-6.8,9.8-7.1,16.1V342
		c0.2,6.3,2.6,11.6,7.1,15.9c4.5,4.3,9.8,6.5,16.1,6.5h4.7v3.6h-79.2l0.4-3.6h4.3c6.5,0,12-2.2,16.5-6.7c4.5-4.5,6.7-9.8,6.7-16.1
		V126.1h-23.1C152.9,126.1,145.7,126.2,139.9,126.5z"/>
	<path class="st0" d="M317.4,126.1h-23.1v215.5c0,6.3,2.2,11.6,6.7,16.1c4.5,4.5,9.9,6.7,16.5,6.7h4.3l0.4,3.6h-79.2v-3.6h4.7
		c6.3,0,11.6-2.2,16.1-6.5c4.5-4.3,6.8-9.6,7.1-15.9V141.3c-0.2-6.3-2.6-11.6-7.1-16.1c-4.5-4.5-9.8-6.7-16.1-6.7h-4.7v-3.6h97.6
		c21.9,0,39.2,6.1,51.7,18.3c12.5,12.2,18.8,28,18.8,47.4c0,19.4-6,36.2-17.9,50.3c-11.9,14.1-26.5,21.2-43.6,21.2
		c3.6,1.7,7.9,5,12.8,9.9c4.9,4.9,9.3,10.1,13.2,15.4c20.7,29.6,34.2,47.9,40.5,54.8c6.3,6.9,10.7,11.6,13.4,14.1
		c2.6,2.5,5.5,5,8.7,7.4c3.1,2.4,6.3,4.3,9.4,5.8c7,3.4,14.5,5.1,22.4,5.1v3.6h-19.9c-10.4,0-20-1.9-28.9-5.6
		c-8.9-3.7-15.6-7.6-20.1-11.6c-4.5-4-8.3-7.8-11.6-11.6c-3.3-3.7-12.2-16.2-26.9-37.4c-14.7-21.2-23.3-33.3-25.7-36.3
		c-2.4-3-4.9-6-7.6-8.9c-7.7-8.2-15.4-12.3-23.1-12.3v-3.6c1.9,0.2,4.5,0.4,7.6,0.4c3.1,0,7-0.1,11.6-0.4
		c29.9-0.7,48.7-13.3,56.4-37.6c1.4-4.8,2.2-9.3,2.2-13.6c0-4.2,0-6.9,0-8.1c-0.5-16.1-4.7-29.2-12.7-39.1
		c-8-9.9-18.7-15.2-32.2-15.9C333.3,126.2,326.1,126.1,317.4,126.1z"/>
</g>
</svg>
