<?xml version="1.0" encoding="utf-8"?>
<!-- Generator: Adobe Illustrator 23.0.2, SVG Export Plug-In . SVG Version: 6.00 Build 0)  -->
<svg version="1.1" id="Layer_1" xmlns="http://www.w3.org/2000/svg" xmlns:xlink="http://www.w3.org/1999/xlink" x="0px" y="0px"
	 viewBox="0 0 1400 270" style="enable-background:new 0 0 1400 270;" xml:space="preserve">
<style type="text/css">
	.st0{fill:#FFFFFF;}
</style>
<g>
	<g>
		<path class="st0" d="M331.4,259.5h5.8v3.6h-78.5v-3.3h5.4c4.1,0,7.6-1.6,10.5-4.9c2.9-3.3,4.1-6.8,3.6-10.7L262,62.4l-75.9,168.9
			c-6.8,14.7-10.8,27-12.3,36.9h-3.6L77.6,67.5L62,244.3c-0.5,3.9,0.7,7.4,3.6,10.7c2.9,3.3,6.3,4.9,10.1,4.9h5.8v3.3H11.4v-3.6h5.8
			c6.7,0,12.6-2,17.5-6.1c4.9-4.1,7.9-9.6,8.9-16.6L70.7,5h3.6l100.9,218L273.9,5h3.3L305,236.7c1.2,9.6,6,16.4,14.5,20.2
			C323.1,258.7,327.1,259.5,331.4,259.5z"/>
		<path class="st0" d="M369,259.5c6.3,0,11.6-2.2,16.1-6.7c4.5-4.5,6.8-9.8,7.1-16.1V36c-0.2-6.3-2.6-11.6-7.1-15.9
			c-4.5-4.3-9.8-6.5-16.1-6.5h-4.7V10h79.2v3.6h-4.7c-6.3,0-11.6,2.2-16.1,6.5c-4.5,4.3-6.8,9.6-7.1,15.9v200.7
			c0,6.3,2.3,11.6,6.9,16.1c4.6,4.5,10,6.7,16.3,6.7h4.7v3.6h-79.2v-3.6H369z"/>
		<path class="st0" d="M595.6,21.6c-13.5,0.7-24.2,6-32.2,15.9c-8,9.9-12.2,22.9-12.7,39.1c0,1.2,0,3.9,0,8.1
			c0,4.2,0.7,8.7,2.2,13.6c7.7,24.3,26.5,36.9,56.4,37.6c4.6,0.2,8.4,0.4,11.6,0.4c3.1,0,5.7-0.1,7.6-0.4v3.6
			c-7.7,0-15.4,4.1-23.1,12.3c-2.6,2.9-5.2,5.8-7.6,8.9c-2.4,3-11,15.1-25.7,36.3c-14.7,21.2-23.7,33.7-26.9,37.4
			c-3.3,3.7-7.1,7.6-11.6,11.6c-4.5,4-11.1,7.8-20.1,11.6c-8.9,3.7-18.6,5.6-28.9,5.6h-19.9v-3.6c8,0,15.4-1.7,22.4-5.1
			c3.1-1.4,6.3-3.4,9.4-5.8c3.1-2.4,6-4.9,8.7-7.4c2.7-2.5,7.1-7.2,13.4-14.1c6.3-6.9,19.8-25.1,40.5-54.8
			c3.9-5.3,8.3-10.4,13.2-15.4c4.9-4.9,9.2-8.3,12.8-9.9c-17.1,0-31.6-7.1-43.6-21.2c-11.9-14.1-17.9-30.9-17.9-50.3
			c0-19.4,6.3-35.2,18.8-47.4C555,16.1,572.2,10,594.1,10h97.6v3.6h-4.7c-6.3,0-11.6,2.2-16.1,6.7c-4.5,4.5-6.8,9.8-7.1,16.1v200.7
			c0.2,6.3,2.6,11.6,7.1,15.9c4.5,4.3,9.8,6.5,16.1,6.5h4.7v3.6h-79.2l0.4-3.6h4.3c6.5,0,12-2.2,16.5-6.7c4.5-4.5,6.7-9.8,6.7-16.1
			V21.2h-23.1C608.6,21.2,601.4,21.3,595.6,21.6z"/>
		<path class="st0" d="M773.1,21.2H750v215.5c0,6.3,2.2,11.6,6.7,16.1c4.5,4.5,9.9,6.7,16.5,6.7h4.3l0.4,3.6h-79.2v-3.6h4.7
			c6.3,0,11.6-2.2,16.1-6.5c4.5-4.3,6.8-9.6,7.1-15.9V36.4c-0.2-6.3-2.6-11.6-7.1-16.1c-4.5-4.5-9.8-6.7-16.1-6.7h-4.7V10h97.6
			c21.9,0,39.2,6.1,51.7,18.3c12.5,12.2,18.8,28,18.8,47.4c0,19.4-6,36.2-17.9,50.3C836.9,140,822.4,147,805.3,147
			c3.6,1.7,7.9,5,12.8,9.9c4.9,4.9,9.3,10.1,13.2,15.4c20.7,29.6,34.2,47.9,40.5,54.8c6.3,6.9,10.7,11.6,13.4,14.1
			c2.6,2.5,5.5,5,8.7,7.4c3.1,2.4,6.3,4.3,9.4,5.8c7,3.4,14.5,5.1,22.4,5.1v3.6h-19.9c-10.4,0-20-1.9-28.9-5.6
			c-8.9-3.7-15.6-7.6-20.1-11.6c-4.5-4-8.3-7.8-11.6-11.6c-3.3-3.7-12.2-16.2-26.9-37.4c-14.7-21.2-23.3-33.3-25.7-36.3
			c-2.4-3-4.9-6-7.6-8.9c-7.7-8.2-15.4-12.3-23.1-12.3v-3.6c1.9,0.2,4.5,0.4,7.6,0.4c3.1,0,7-0.1,11.6-0.4
			c29.9-0.7,48.7-13.3,56.4-37.6c1.4-4.8,2.2-9.3,2.2-13.6c0-4.2,0-6.9,0-8.1c-0.5-16.1-4.7-29.2-12.7-39.1
			c-8-9.9-18.7-15.2-32.2-15.9C789,21.3,781.8,21.2,773.1,21.2z"/>
		<path class="st0" d="M951,43.1c24-24.2,55.3-36.3,93.8-36.3c38.6,0,69.9,12.1,94,36.3c24.1,24.2,36.2,56,36.2,95.3
			c0,39.3-12.1,71-36.2,95.3c-24.1,24.2-55.4,36.3-94,36.3c-38.6,0-69.8-12.1-93.8-36.3c-24-24.2-36-56-36-95.3
			C915,99.1,927,67.3,951,43.1z M970.9,225.9c18.7,22.2,43.4,33.3,74.1,33.3c30.7,0,55.4-11.1,74.1-33.3c18.7-22.2,28-51.3,28-87.5
			c0-23.9-4.2-45-12.7-63.3c-8.4-18.3-20.4-32.5-36-42.5c-15.5-10-33.4-15-53.7-15c-30.6,0-55.3,11.1-73.9,33.3
			c-18.7,22.2-28,51.3-28,87.5C942.9,174.5,952.2,203.7,970.9,225.9z"/>
		<path class="st0" d="M1293.8,21.6c-13.5,0.7-24.2,6-32.2,15.9c-8,9.9-12.2,22.9-12.7,39.1c0,1.2,0,3.9,0,8.1
			c0,4.2,0.7,8.7,2.2,13.6c7.7,24.3,26.5,36.9,56.4,37.6c4.6,0.2,8.4,0.4,11.6,0.4c3.1,0,5.7-0.1,7.6-0.4v3.6
			c-7.7,0-15.4,4.1-23.1,12.3c-2.6,2.9-5.2,5.8-7.6,8.9c-2.4,3-11,15.1-25.7,36.3c-14.7,21.2-23.7,33.7-26.9,37.4
			c-3.3,3.7-7.1,7.6-11.6,11.6c-4.5,4-11.1,7.8-20.1,11.6c-8.9,3.7-18.6,5.6-28.9,5.6h-19.9v-3.6c8,0,15.4-1.7,22.4-5.1
			c3.1-1.4,6.3-3.4,9.4-5.8c3.1-2.4,6-4.9,8.7-7.4c2.7-2.5,7.1-7.2,13.4-14.1c6.3-6.9,19.8-25.1,40.5-54.8
			c3.9-5.3,8.3-10.4,13.2-15.4c4.9-4.9,9.2-8.3,12.8-9.9c-17.1,0-31.6-7.1-43.6-21.2c-11.9-14.1-17.9-30.9-17.9-50.3
			c0-19.4,6.3-35.2,18.8-47.4c12.5-12.2,29.8-18.3,51.7-18.3h97.6v3.6h-4.7c-6.3,0-11.6,2.2-16.1,6.7c-4.5,4.5-6.8,9.8-7.1,16.1
			v200.7c0.2,6.3,2.6,11.6,7.1,15.9c4.5,4.3,9.8,6.5,16.1,6.5h4.7v3.6h-79.2l0.4-3.6h4.3c6.5,0,12-2.2,16.5-6.7
			c4.5-4.5,6.7-9.8,6.7-16.1V21.2h-23.1C1306.8,21.2,1299.6,21.3,1293.8,21.6z"/>
	</g>
	<g>
		<path class="st0" d="M992,156h0.8v0.5h-11.3v-0.5h0.8c0.6,0,1.1-0.2,1.5-0.7c0.4-0.5,0.6-1,0.5-1.5l-2.3-26.1L971.1,152
			c-1,2.1-1.6,3.9-1.8,5.3h-0.5l-13.3-28.8l-2.2,25.4c-0.1,0.6,0.1,1.1,0.5,1.5c0.4,0.5,0.9,0.7,1.5,0.7h0.8v0.5h-10.1V156h0.8
			c1,0,1.8-0.3,2.5-0.9c0.7-0.6,1.1-1.4,1.3-2.4l3.9-33.3h0.5l14.5,31.3l14.2-31.3h0.5l4,33.3c0.2,1.4,0.9,2.4,2.1,2.9
			C990.8,155.9,991.4,156,992,156z"/>
		<path class="st0" d="M997.4,156c0.9,0,1.7-0.3,2.3-1c0.6-0.6,1-1.4,1-2.3V124c0-0.9-0.4-1.7-1-2.3c-0.6-0.6-1.4-0.9-2.3-0.9h-0.7
			v-0.5h11.4v0.5h-0.7c-0.9,0-1.7,0.3-2.3,0.9c-0.6,0.6-1,1.4-1,2.3v28.8c0,0.9,0.3,1.7,1,2.3c0.7,0.6,1.4,1,2.3,1h0.7v0.5h-11.4
			V156H997.4z"/>
		<path class="st0" d="M1029.9,121.9c-1.9,0.1-3.5,0.9-4.6,2.3c-1.1,1.4-1.7,3.3-1.8,5.6c0,0.2,0,0.6,0,1.2c0,0.6,0.1,1.3,0.3,1.9
			c1.1,3.5,3.8,5.3,8.1,5.4c0.7,0,1.2,0.1,1.7,0.1c0.5,0,0.8,0,1.1-0.1v0.5c-1.1,0-2.2,0.6-3.3,1.8c-0.4,0.4-0.7,0.8-1.1,1.3
			c-0.3,0.4-1.6,2.2-3.7,5.2c-2.1,3-3.4,4.8-3.9,5.4c-0.5,0.5-1,1.1-1.7,1.7c-0.6,0.6-1.6,1.1-2.9,1.7c-1.3,0.5-2.7,0.8-4.2,0.8
			h-2.9V156c1.1,0,2.2-0.2,3.2-0.7c0.5-0.2,0.9-0.5,1.3-0.8c0.5-0.3,0.9-0.7,1.2-1.1c0.4-0.4,1-1,1.9-2c0.9-1,2.8-3.6,5.8-7.9
			c0.6-0.8,1.2-1.5,1.9-2.2c0.7-0.7,1.3-1.2,1.8-1.4c-2.5,0-4.5-1-6.3-3c-1.7-2-2.6-4.4-2.6-7.2c0-2.8,0.9-5.1,2.7-6.8
			c1.8-1.7,4.3-2.6,7.4-2.6h14v0.5h-0.7c-0.9,0-1.7,0.3-2.3,1c-0.6,0.6-1,1.4-1,2.3v28.8c0,0.9,0.4,1.7,1,2.3
			c0.6,0.6,1.4,0.9,2.3,0.9h0.7v0.5h-11.4l0.1-0.5h0.6c0.9,0,1.7-0.3,2.4-1c0.6-0.6,1-1.4,1-2.3v-30.9h-3.3
			C1031.8,121.8,1030.8,121.8,1029.9,121.9z"/>
		<path class="st0" d="M1055.4,121.8h-3.3v30.9c0,0.9,0.3,1.7,1,2.3c0.6,0.6,1.4,1,2.4,1h0.6l0.1,0.5h-11.4V156h0.7
			c0.9,0,1.7-0.3,2.3-0.9c0.6-0.6,1-1.4,1-2.3V124c0-0.9-0.4-1.7-1-2.3c-0.6-0.6-1.4-1-2.3-1h-0.7v-0.5h14c3.1,0,5.6,0.9,7.4,2.6
			c1.8,1.7,2.7,4,2.7,6.8c0,2.8-0.9,5.2-2.6,7.2c-1.7,2-3.8,3-6.3,3c0.5,0.2,1.1,0.7,1.8,1.4c0.7,0.7,1.3,1.4,1.9,2.2
			c3,4.3,4.9,6.9,5.8,7.9c0.9,1,1.5,1.7,1.9,2c0.4,0.4,0.8,0.7,1.2,1.1c0.4,0.3,0.9,0.6,1.3,0.8c1,0.5,2.1,0.7,3.2,0.7v0.5h-2.9
			c-1.5,0-2.9-0.3-4.2-0.8c-1.3-0.5-2.2-1.1-2.9-1.7c-0.6-0.6-1.2-1.1-1.7-1.7c-0.5-0.5-1.8-2.3-3.9-5.4c-2.1-3-3.3-4.8-3.7-5.2
			c-0.3-0.4-0.7-0.9-1.1-1.3c-1.1-1.2-2.2-1.8-3.3-1.8v-0.5c0.3,0,0.6,0.1,1.1,0.1c0.4,0,1,0,1.7-0.1c4.3-0.1,7-1.9,8.1-5.4
			c0.2-0.7,0.3-1.3,0.3-1.9c0-0.6,0-1,0-1.2c-0.1-2.3-0.7-4.2-1.8-5.6c-1.1-1.4-2.7-2.2-4.6-2.3
			C1057.7,121.8,1056.7,121.8,1055.4,121.8z"/>
		<path class="st0" d="M1080.9,124.7c3.4-3.5,7.9-5.2,13.5-5.2c5.5,0,10,1.7,13.5,5.2c3.5,3.5,5.2,8,5.2,13.7
			c0,5.6-1.7,10.2-5.2,13.7c-3.5,3.5-8,5.2-13.5,5.2c-5.5,0-10-1.7-13.5-5.2c-3.4-3.5-5.2-8-5.2-13.7
			C1075.7,132.7,1077.4,128.2,1080.9,124.7z M1083.7,150.9c2.7,3.2,6.2,4.8,10.6,4.8s8-1.6,10.6-4.8c2.7-3.2,4-7.4,4-12.6
			c0-3.4-0.6-6.5-1.8-9.1c-1.2-2.6-2.9-4.7-5.2-6.1c-2.2-1.4-4.8-2.2-7.7-2.2c-4.4,0-7.9,1.6-10.6,4.8c-2.7,3.2-4,7.4-4,12.6
			C1079.7,143.6,1081,147.8,1083.7,150.9z"/>
		<path class="st0" d="M1130.2,121.9c-1.9,0.1-3.5,0.9-4.6,2.3c-1.1,1.4-1.7,3.3-1.8,5.6c0,0.2,0,0.6,0,1.2c0,0.6,0.1,1.3,0.3,1.9
			c1.1,3.5,3.8,5.3,8.1,5.4c0.7,0,1.2,0.1,1.7,0.1c0.5,0,0.8,0,1.1-0.1v0.5c-1.1,0-2.2,0.6-3.3,1.8c-0.4,0.4-0.7,0.8-1.1,1.3
			c-0.3,0.4-1.6,2.2-3.7,5.2c-2.1,3-3.4,4.8-3.9,5.4c-0.5,0.5-1,1.1-1.7,1.7c-0.6,0.6-1.6,1.1-2.9,1.7c-1.3,0.5-2.7,0.8-4.2,0.8
			h-2.9V156c1.1,0,2.2-0.2,3.2-0.7c0.5-0.2,0.9-0.5,1.4-0.8c0.4-0.3,0.9-0.7,1.2-1.1c0.4-0.4,1-1,1.9-2c0.9-1,2.8-3.6,5.8-7.9
			c0.6-0.8,1.2-1.5,1.9-2.2c0.7-0.7,1.3-1.2,1.8-1.4c-2.5,0-4.5-1-6.3-3c-1.7-2-2.6-4.4-2.6-7.2c0-2.8,0.9-5.1,2.7-6.8
			c1.8-1.7,4.3-2.6,7.4-2.6h14v0.5h-0.7c-0.9,0-1.7,0.3-2.3,1c-0.6,0.6-1,1.4-1,2.3v28.8c0,0.9,0.4,1.7,1,2.3
			c0.6,0.6,1.4,0.9,2.3,0.9h0.7v0.5h-11.4l0.1-0.5h0.6c0.9,0,1.7-0.3,2.4-1c0.6-0.6,1-1.4,1-2.3v-30.9h-3.3
			C1132,121.8,1131,121.8,1130.2,121.9z"/>
	</g>
</g>
</svg>
