<svg id="Layer_1" data-name="Layer 1" xmlns="http://www.w3.org/2000/svg" viewBox="0 0 463.45 113.39"><defs><style>.cls-1,.cls-2,.cls-3{fill:#f2f2f2;}.cls-1{opacity:0.7;}.cls-2{opacity:0.6;}.cls-3{opacity:0.8;}.cls-4{fill:#fff;}</style></defs><rect class="cls-1" x="28.35" y="28.35" width="56.69" height="85.04"/><path class="cls-2" d="M56.69,0H95a18.43,18.43,0,0,1,18.43,18.43v95a0,0,0,0,1,0,0H56.69a0,0,0,0,1,0,0V0A0,0,0,0,1,56.69,0Z"/><path class="cls-3" d="M11.83,66.47H50.09A18.43,18.43,0,0,1,68.52,84.9v38.26a0,0,0,0,1,0,0H11.83a0,0,0,0,1,0,0V66.47A0,0,0,0,1,11.83,66.47Z" transform="translate(68.52 179.85) rotate(-180)"/><path class="cls-4" d="M156.18,50.86v4.7h14.6V62h-14.4v35.9c3.2.47,5.43.83,6.7,1.1a1.72,1.72,0,0,1,1.5,1.9v4.3h-24.8v-4.3a1.72,1.72,0,0,1,1.5-1.9l6.2-1.1V62.16l-5.6-.7c-1.6-.4-2.4-1.17-2.4-2.3v-3.6h8v-4.9q0-8.8,4.7-13.5t12.7-4.7a21.61,21.61,0,0,1,6.3,1L171,38a1.18,1.18,0,0,1-.9,1.2,8.76,8.76,0,0,1-2.3.2h-1.4Q156.18,39.36,156.18,50.86Z" transform="translate(-11.83 -9.77)"/><path class="cls-4" d="M207.58,55.56a22.46,22.46,0,0,1,7.7,5.2,21.46,21.46,0,0,1,4.8,8.2,35.16,35.16,0,0,1,0,21.6,21.46,21.46,0,0,1-4.8,8.2,22.46,22.46,0,0,1-7.7,5.2,28.68,28.68,0,0,1-20,0,22.46,22.46,0,0,1-7.7-5.2,23.4,23.4,0,0,1-4.9-8.2,31.22,31.22,0,0,1-1.6-10.8A31.22,31.22,0,0,1,175,69a23.4,23.4,0,0,1,4.9-8.2,22.46,22.46,0,0,1,7.7-5.2,28.68,28.68,0,0,1,20,0Zm1.2,38.4q3.71-5.2,3.7-14.1t-3.7-14.1q-3.5-5-11.2-5A16.22,16.22,0,0,0,191,62a12.38,12.38,0,0,0-4.6,3.8,17.64,17.64,0,0,0-2.8,6,33.54,33.54,0,0,0-1,8.2,32.71,32.71,0,0,0,1,8,17.64,17.64,0,0,0,2.8,6,11.41,11.41,0,0,0,4.6,3.6,16.34,16.34,0,0,0,6.6,1.4Q205.28,99,208.78,94Z" transform="translate(-11.83 -9.77)"/><path class="cls-4" d="M258.48,53.56a13.15,13.15,0,0,1,6.9,1.8l-1.1,6.7c-.2.87-.63,1.3-1.3,1.3a10.16,10.16,0,0,1-2.4-.5,14.78,14.78,0,0,0-4.1-.5q-8.81,0-13,10.6V98l5.7,1.1a1.72,1.72,0,0,1,1.5,1.9v4.2h-23.3V101a1.72,1.72,0,0,1,1.5-1.9l5.7-1.1V61.86q-4.8-.9-5.7-1.2a1.72,1.72,0,0,1-1.5-1.9v-4.2h12.3a2.72,2.72,0,0,1,1.9.5,4,4,0,0,1,.8,1.9l.6,7.9h.1Q248.68,53.57,258.48,53.56Z" transform="translate(-11.83 -9.77)"/><path class="cls-4" d="M279.68,102.56q-3.19-3.19-3.2-9.6V62h-6.1a2.16,2.16,0,0,1-1.4-.4,1.86,1.86,0,0,1-.5-1.5v-3.5l8.3-1.1,2-15.7a1.35,1.35,0,0,1,.6-1.2,2.16,2.16,0,0,1,1.4-.4h4.5v17.4h14.5v6.5h-14.5v30.4q0,3.3,1.5,4.8a5.55,5.55,0,0,0,4.1,1.5,9.09,9.09,0,0,0,2.5-.4,10.9,10.9,0,0,0,1.8-.8l.6-.4.6-.4a3.4,3.4,0,0,1,1-.4,1.42,1.42,0,0,1,1.2.8l2.6,4.2a19.16,19.16,0,0,1-5.6,3.4,19.46,19.46,0,0,1-6.7,1.2Q283.08,106,279.68,102.56Z" transform="translate(-11.83 -9.77)"/><path class="cls-4" d="M345.38,92V62q-.9-.3-5.7-1.2a1.72,1.72,0,0,1-1.5-1.9v-4.3h16.1V98q4.8.9,5.7,1.2a1.67,1.67,0,0,1,1.5,1.8v4.3H349a2.37,2.37,0,0,1-2.4-1.9l-.7-5.4q-7.2,8.1-16.8,8.1-8.1,0-12.6-5.3t-4.4-13.9v-25c-3.07-.6-4.93-1-5.6-1.2a1.75,1.75,0,0,1-1.6-1.9v-4.2h16.2v32.2q0,6,2.6,9t8,3.1V99Q339.18,99,345.38,92Z" transform="translate(-11.83 -9.77)"/><path class="cls-4" d="M399.88,53.66q8.19,0,12.6,5.3t4.3,13.9v24.9q4.8.9,5.7,1.2a1.76,1.76,0,0,1,1.6,1.9v4.3h-16.2V73q0-12.19-10.6-12.2-7.5,0-13.8,7.1v30c.26,0,2.2.4,5.8,1.2a1.72,1.72,0,0,1,1.5,1.9v4.2h-23.3V101a1.7,1.7,0,0,1,1.4-1.9l5.8-1.1V61.86a57.41,57.41,0,0,1-5.8-1.2,1.7,1.7,0,0,1-1.4-1.9v-4.2h12.4a2.35,2.35,0,0,1,2.4,1.8l.8,5.5v-.1Q390.58,53.66,399.88,53.66Z" transform="translate(-11.83 -9.77)"/><path class="cls-4" d="M474.88,99.41a2.12,2.12,0,0,1,.4,1.25V105h-10.4a6.68,6.68,0,0,1-2.1-.4c-.47-.13-.8-.67-1-1.6l-1-4.8-4,3.3a17.18,17.18,0,0,1-4,2.4,22.66,22.66,0,0,1-4.4,1.5,23.44,23.44,0,0,1-5.4.5,16.36,16.36,0,0,1-5.4-.9,13,13,0,0,1-4.5-2.4,12.63,12.63,0,0,1-3-4.2,13.86,13.86,0,0,1-1.1-6,10.82,10.82,0,0,1,1.6-5.8,15.18,15.18,0,0,1,5.4-5,35.21,35.21,0,0,1,9.6-3.6,68.08,68.08,0,0,1,14.6-1.3v-3.9q0-5.9-2.6-9t-7.5-3.1a15.05,15.05,0,0,0-5.5.9,20.85,20.85,0,0,0-3.8,1.8c-.4.27-.85.55-1.35.85l-1.55,1a3.89,3.89,0,0,1-2.3.8,2.52,2.52,0,0,1-1.6-.4,4.16,4.16,0,0,1-1-1.2l-1.6-2.8a29.67,29.67,0,0,1,9-6,26.93,26.93,0,0,1,10.8-2,18.49,18.49,0,0,1,7.6,1.4,16.25,16.25,0,0,1,5.5,3.8,15.43,15.43,0,0,1,3.4,6,24.83,24.83,0,0,1,1.1,7.8v25.3c3.2.67,4.86,1,5,1.1v-.2A1.6,1.6,0,0,1,474.88,99.41Zm-25.3-16.35a32,32,0,0,0-7,2.1,9.86,9.86,0,0,0-4,3,6.75,6.75,0,0,0-1.2,3.8,9.31,9.31,0,0,0,.7,3.4,5.46,5.46,0,0,0,1.8,2.4,7.94,7.94,0,0,0,2.6,1.3,11.76,11.76,0,0,0,3.3.5,19.21,19.21,0,0,0,4.2-.5,20.41,20.41,0,0,0,3.7-1.3,15.83,15.83,0,0,0,3.3-2.2c.66-.53,1.66-1.47,3-2.8V82.36A61,61,0,0,0,449.58,83.06Z" transform="translate(-11.83 -9.77)"/></svg>