<?xml version="1.0" encoding="UTF-8" standalone="no"?>
<!DOCTYPE svg PUBLIC "-//W3C//DTD SVG 1.1//EN" "http://www.w3.org/Graphics/SVG/1.1/DTD/svg11.dtd">
<svg width="100%" height="100%" viewBox="0 0 1000 1000" version="1.1" xmlns="http://www.w3.org/2000/svg" xmlns:xlink="http://www.w3.org/1999/xlink" xml:space="preserve" xmlns:serif="http://www.serif.com/" style="fill-rule:evenodd;clip-rule:evenodd;stroke-linejoin:round;stroke-miterlimit:2;">
    <g transform="matrix(20.4583,0,0,18.012,4.51463,12.7618)">
        <path d="M45.498,32.543C44.647,32.052 43.686,31.783 42.704,31.761L42.704,22.34C45.877,22.266 48.444,19.633 48.438,16.46C48.434,13.234 45.777,10.582 42.551,10.585C40.508,10.584 38.607,11.655 37.547,13.402L29.385,8.692C29.857,7.83 30.104,6.863 30.102,5.881C30.102,2.655 27.448,0 24.222,0C20.996,-0 18.341,2.655 18.341,5.881C18.339,6.863 18.586,7.83 19.059,8.692L10.896,13.402C9.83,11.655 7.925,10.586 5.878,10.586C2.654,10.586 0,13.239 0,16.464C0,19.636 2.568,22.265 5.739,22.34L5.739,31.761C2.567,31.835 -0.001,34.468 0.005,37.642C0.009,40.868 2.666,43.519 5.892,43.516C7.935,43.517 9.837,42.447 10.896,40.7L19.059,45.41C18.586,46.271 18.339,47.238 18.341,48.221C18.341,51.447 20.996,54.101 24.222,54.101C27.448,54.101 30.102,51.447 30.102,48.221C30.104,47.238 29.857,46.271 29.385,45.41L37.547,40.7C38.614,42.444 40.517,43.511 42.561,43.511C45.785,43.511 48.438,40.858 48.438,37.634C48.438,35.536 47.315,33.591 45.498,32.543ZM40.205,12.39C40.919,11.981 41.728,11.765 42.551,11.765C45.129,11.765 47.253,13.881 47.262,16.46C47.269,18.988 45.232,21.091 42.704,21.164L42.704,16.466L42.698,16.46L42.698,16.424C42.698,16.419 42.687,16.419 42.687,16.413C42.681,16.407 42.687,16.395 42.681,16.389C42.681,16.383 42.669,16.383 42.669,16.377C42.663,16.372 42.663,16.366 42.651,16.36L42.651,16.354C42.648,16.354 42.646,16.351 42.646,16.348C42.641,16.347 42.637,16.345 42.634,16.342C42.631,16.342 42.628,16.34 42.628,16.336L38.564,13.99C38.969,13.328 39.533,12.778 40.205,12.39ZM37.97,36.607C38.066,36.193 38.216,35.793 38.417,35.419L41.728,37.33L37.97,36.607ZM41.017,37.489L37.859,37.489C37.863,37.29 37.883,37.091 37.918,36.895L41.017,37.489ZM36.024,36.23L31.784,35.413L33.442,32.543L37.382,34.819C37.035,35.38 36.572,35.862 36.024,36.23ZM36.7,37.189C36.694,37.289 36.683,37.389 36.683,37.489L36.23,37.489C36.389,37.401 36.547,37.295 36.7,37.189ZM29.755,35.325L31.32,35.625L30.914,36.336C30.476,36.063 30.085,35.722 29.755,35.325ZM30.326,37.354L30.243,37.489L30.096,37.489C30.09,37.389 30.085,37.289 30.079,37.189C30.161,37.242 30.238,37.301 30.326,37.354ZM30.914,17.765L31.325,18.477L29.755,18.777C30.085,18.38 30.476,18.038 30.914,17.765ZM30.079,16.913C30.085,16.813 30.09,16.713 30.096,16.613L30.243,16.613L30.326,16.748C30.238,16.801 30.161,16.86 30.079,16.913ZM37.382,19.282L33.442,21.558L31.784,18.689L36.024,17.871C36.572,18.24 37.035,18.721 37.382,19.282ZM36.23,16.613L36.683,16.613C36.683,16.713 36.694,16.813 36.7,16.913C36.549,16.804 36.392,16.704 36.23,16.613ZM39.37,19.918C39.058,19.63 38.787,19.302 38.564,18.941L41.875,17.03L39.37,19.918ZM41.658,17.73L40.082,20.459C39.912,20.353 39.749,20.237 39.594,20.112L41.658,17.73ZM39.241,21.311C39.323,21.37 39.405,21.423 39.494,21.476L39.264,21.876C39.264,21.835 39.27,21.793 39.27,21.752C39.27,21.605 39.252,21.458 39.241,21.311ZM38.417,18.683C38.216,18.308 38.066,17.909 37.97,17.495L41.728,16.771L38.417,18.683ZM35.859,25.751L35.401,24.951L38.088,21.846C38.059,23.441 37.217,24.915 35.859,25.751ZM36.271,27.051L36.195,27.186C36.107,27.136 36.016,27.091 35.924,27.051C36.016,27.01 36.107,26.965 36.195,26.915L36.271,27.051ZM35.606,25.898C35.153,26.142 34.662,26.309 34.154,26.392L35.195,25.187L35.606,25.898ZM33.719,26.445C33.66,26.445 33.595,26.451 33.531,26.457L33.531,22.305L35.042,24.916L33.719,26.445ZM27.515,32.49C27.521,32.584 27.527,32.684 27.538,32.778C27.385,32.673 27.226,32.577 27.062,32.49L27.515,32.49ZM27.068,32.196C27.228,32.109 27.383,32.013 27.532,31.908C27.527,32.002 27.521,32.102 27.515,32.196L27.068,32.196ZM27.55,34.307C27.66,34.419 27.764,34.537 27.862,34.66L27.121,34.513L27.409,34.184L27.55,34.307ZM27.185,33.984L26.786,34.448L24.998,34.107L26.868,33.749C26.979,33.82 27.085,33.899 27.185,33.984ZM26.897,34.772L28.126,35.007C28.156,35.054 28.185,35.107 28.215,35.16L24.904,37.071L26.897,34.772ZM28.367,35.413C28.396,35.466 28.422,35.521 28.444,35.578L27.785,37.489L24.769,37.489L28.367,35.413ZM28.367,29.274L24.516,27.051L28.367,24.828C29.112,26.215 29.112,27.887 28.367,29.274ZM27.515,21.876L27.285,21.476C27.368,21.429 27.456,21.376 27.538,21.323C27.527,21.47 27.509,21.617 27.509,21.764C27.509,21.799 27.515,21.841 27.515,21.876ZM27.409,19.918L27.121,19.588L27.862,19.441C27.764,19.564 27.66,19.682 27.55,19.794L27.409,19.918ZM26.127,19.477L25.121,17.724L26.562,19.394L26.127,19.477ZM26.227,20.229L24.998,19.994L25.98,19.806L26.227,20.229ZM26.786,19.653L27.185,20.117C27.085,20.202 26.979,20.281 26.868,20.353L26.609,20.306L26.286,19.747L26.786,19.653ZM27.033,21.629L27.262,22.023C27.103,21.929 26.939,21.841 26.774,21.758C26.862,21.717 26.95,21.676 27.033,21.629ZM26.897,19.329L24.904,17.03L28.215,18.941C28.185,18.994 28.156,19.047 28.126,19.094L26.897,19.329ZM30.955,25.781C30.321,25.395 29.787,24.865 29.397,24.234L30.249,23.74L30.955,25.781ZM30.72,24.193L31.913,25.569L31.714,26.145C31.584,26.098 31.461,26.039 31.337,25.98L30.72,24.193ZM30.855,27.051C30.76,27.09 30.668,27.135 30.579,27.186L30.343,26.78C30.509,26.88 30.68,26.97 30.855,27.051ZM30.096,26.939L30.326,27.333L30.079,27.492C30.09,27.345 30.102,27.198 30.102,27.051C30.102,27.015 30.096,26.974 30.096,26.939ZM29.25,23.981C28.896,23.324 28.704,22.592 28.691,21.846L30.102,23.481L29.25,23.981ZM30.914,28.35L30.937,28.391L30.249,30.361L29.397,29.868C29.778,29.251 30.297,28.732 30.914,28.35ZM31.131,28.727L31.372,29.15L30.72,29.909L31.131,28.727ZM31.255,28.356L31.337,28.121C31.461,28.062 31.584,28.003 31.708,27.956L31.913,28.533L31.578,28.915L31.255,28.356ZM32.019,28.856L32.743,30.932L31.731,29.185L32.019,28.856ZM31.99,27.862C32.198,27.796 32.41,27.745 32.625,27.709L32.131,28.274L31.99,27.862ZM31.99,26.239L32.131,25.828L32.625,26.392C32.41,26.356 32.198,26.305 31.99,26.239ZM32.025,25.251L30.561,23.564L33.119,22.082L32.025,25.251ZM30.414,23.305L29.679,21.194L32.972,21.829L30.414,23.305ZM29.943,22.846L28.703,21.417C28.714,21.282 28.726,21.152 28.75,21.017L29.35,21.129L29.943,22.846ZM28.62,18.13L28.091,16.613L28.92,16.613C28.903,17.131 28.802,17.644 28.62,18.13ZM28.444,18.53C28.42,18.583 28.397,18.636 28.367,18.689L24.769,16.613L27.785,16.613L28.444,18.53ZM29.25,30.126L30.102,30.62L28.738,32.196L28.691,32.196C28.715,31.472 28.906,30.764 29.25,30.126ZM28.873,32.49L29.514,32.49L29.35,32.972L28.75,33.084C28.726,32.955 28.714,32.82 28.703,32.684L28.873,32.49ZM29.126,32.196L29.943,31.255L29.614,32.196L29.126,32.196ZM29.826,32.49L31.843,32.49L29.679,32.908L29.826,32.49ZM29.926,32.196L30.414,30.797L32.837,32.196L29.926,32.196ZM30.561,30.544L31.531,29.421L32.984,31.943L30.561,30.544ZM32.243,28.597L33.054,27.662C33.119,27.656 33.178,27.651 33.237,27.651L33.237,31.467L32.243,28.597ZM33.054,26.439L32.243,25.504L33.237,22.634L33.237,26.451C33.178,26.451 33.119,26.445 33.054,26.439ZM31.625,18.418L31.167,17.618C31.848,17.251 32.609,17.057 33.384,17.054C34.181,17.055 34.966,17.258 35.665,17.642L31.625,18.418ZM31.478,18.747L32.984,21.358L29.397,19.282C29.426,19.23 29.461,19.182 29.497,19.13L31.478,18.747ZM32.554,21.452L29.567,20.876L29.167,19.706C29.191,19.653 29.22,19.594 29.25,19.535L32.554,21.452ZM29.238,20.811L28.809,20.729C28.855,20.515 28.916,20.305 28.991,20.1L29.238,20.811ZM27.991,16.319L26.65,12.443C26.976,12.639 27.278,12.872 27.55,13.137C28.393,13.985 28.883,15.123 28.92,16.319L27.991,16.319ZM26.774,11.173C26.862,11.132 26.95,11.091 27.033,11.044L27.262,11.438C27.103,11.344 26.939,11.255 26.774,11.173ZM26.697,9.874L24.622,6.28L28.215,8.356C28.025,8.664 27.802,8.95 27.55,9.209C27.291,9.461 27.005,9.684 26.697,9.874ZM26.445,10.026C26.268,10.121 26.085,10.203 25.898,10.273L24.863,7.292L26.445,10.026ZM25.621,10.373C25.215,10.497 24.793,10.566 24.369,10.579L24.369,6.757L25.621,10.373ZM26.268,12.232L27.679,16.319L24.369,16.319L24.369,11.767C25.027,11.789 25.674,11.947 26.268,12.232ZM25.827,19.535L24.369,19.818L24.369,17.013L25.827,19.535ZM26.421,20.57L26.445,20.611C25.805,20.955 25.094,21.144 24.369,21.164L24.369,20.17L26.421,20.57ZM27.55,23.722C27.802,23.981 28.025,24.267 28.215,24.575L24.369,26.798L24.369,22.352C25.564,22.389 26.702,22.879 27.55,23.722ZM28.215,29.526C28.025,29.834 27.802,30.12 27.55,30.379C26.702,31.222 25.564,31.712 24.369,31.749L24.369,27.304L28.215,29.526ZM26.497,33.519L24.369,33.931L24.369,32.937C25.115,32.958 25.845,33.158 26.497,33.519ZM26.562,34.707L24.369,37.242L24.369,34.284L26.562,34.707ZM27.679,37.783L26.268,41.87C25.674,42.155 25.027,42.313 24.369,42.334L24.369,37.783L27.679,37.783ZM26.445,44.075L24.863,46.809L25.898,43.828C26.085,43.898 26.268,43.981 26.445,44.075ZM25.621,43.728L24.369,47.345L24.369,43.522C24.793,43.536 25.215,43.605 25.621,43.728ZM26.697,44.228C27.321,44.6 27.842,45.122 28.215,45.745L24.622,47.821L26.697,44.228ZM27.033,43.058C26.95,43.011 26.862,42.969 26.774,42.928C26.939,42.846 27.103,42.758 27.256,42.664L27.033,43.058ZM26.65,41.658L27.991,37.783L28.92,37.783C28.883,38.978 28.393,40.116 27.55,40.964C27.278,41.23 26.976,41.463 26.65,41.658ZM28.091,37.489L28.62,35.972C28.802,36.458 28.903,36.97 28.92,37.489L28.091,37.489ZM28.809,33.372L29.238,33.29L28.991,34.002C28.916,33.796 28.855,33.586 28.809,33.372ZM29.573,33.225L32.554,32.649L29.25,34.566C29.22,34.507 29.191,34.454 29.167,34.396L29.573,33.225ZM32.984,32.743L31.478,35.354L29.497,34.972C29.461,34.919 29.426,34.872 29.397,34.819L32.984,32.743ZM31.625,35.683L35.665,36.46C34.966,36.844 34.181,37.046 33.384,37.048C32.609,37.045 31.848,36.851 31.167,36.483L31.625,35.683ZM33.531,27.645C33.595,27.651 33.66,27.656 33.719,27.656L35.042,29.185L33.531,31.796L33.531,27.645ZM34.154,27.709C34.662,27.793 35.153,27.96 35.606,28.203L35.195,28.915L34.154,27.709ZM35.859,28.35C37.217,29.187 38.059,30.66 38.088,32.255L35.401,29.15L35.859,28.35ZM38.564,35.16C38.787,34.8 39.058,34.471 39.37,34.184L41.875,37.071L38.564,35.16ZM39.264,32.226L39.494,32.626C39.405,32.678 39.323,32.731 39.241,32.79C39.252,32.643 39.27,32.496 39.27,32.349C39.27,32.308 39.264,32.267 39.264,32.226ZM39.594,33.99C39.749,33.864 39.912,33.748 40.082,33.643L41.658,36.371L39.594,33.99ZM40.334,33.496C40.975,33.155 41.685,32.966 42.41,32.943L42.41,37.089L40.334,33.496ZM39.746,32.478L39.217,31.555C39.007,30.023 38.204,28.634 36.983,27.686L36.612,27.051L36.977,26.416C38.203,25.469 39.009,24.076 39.217,22.54L39.746,21.623C40.565,22.069 41.478,22.313 42.41,22.334L42.41,31.767C41.478,31.788 40.565,32.032 39.746,32.478ZM40.334,20.606L42.41,17.013L42.41,21.158C41.685,21.136 40.975,20.947 40.334,20.606ZM38.412,14.243L42.005,16.319L37.859,16.319C37.882,15.594 38.071,14.883 38.412,14.243ZM41.017,16.613L37.918,17.207C37.883,17.01 37.863,16.812 37.859,16.613L41.017,16.613ZM38.07,21.417L35.242,24.681L33.589,21.811L37.529,19.535C37.843,20.116 38.027,20.758 38.07,21.417ZM37.394,13.655C36.952,14.475 36.708,15.387 36.683,16.319L35.618,16.319C34.909,16.028 34.15,15.878 33.384,15.878C32.619,15.877 31.862,16.026 31.155,16.319L30.414,16.319L30.043,15.672C29.836,14.147 29.037,12.763 27.821,11.82L27.285,10.891C28.081,10.407 28.748,9.74 29.232,8.944L37.394,13.655ZM20.893,2.552C21.775,1.669 22.974,1.172 24.222,1.172C26.802,1.172 28.926,3.296 28.926,5.877C28.926,5.878 28.926,5.879 28.926,5.881C28.929,6.657 28.737,7.421 28.367,8.103L24.292,5.751C24.286,5.752 24.279,5.75 24.275,5.745L24.269,5.739L24.239,5.739C24.233,5.739 24.228,5.734 24.222,5.734C24.216,5.734 24.21,5.739 24.204,5.739L24.175,5.739L24.169,5.745C24.164,5.75 24.158,5.752 24.151,5.751L24.145,5.751L20.076,8.103C19.706,7.421 19.514,6.657 19.517,5.881C19.514,4.633 20.01,3.434 20.893,2.552ZM17.53,36.336L17.118,35.625L18.688,35.325C18.359,35.722 17.967,36.063 17.53,36.336ZM18.365,37.189C18.359,37.289 18.353,37.389 18.347,37.489L18.2,37.489L18.118,37.354C18.206,37.301 18.282,37.242 18.365,37.189ZM11.061,34.819L15.001,32.543L16.659,35.413L12.419,36.23C11.872,35.862 11.408,35.38 11.061,34.819ZM12.214,37.489L11.761,37.489C11.755,37.389 11.749,37.289 11.743,37.189C11.896,37.295 12.055,37.401 12.214,37.489ZM10.473,17.495C10.376,17.91 10.226,18.312 10.026,18.689L6.715,16.777L10.473,17.495ZM7.427,16.613L10.585,16.613C10.58,16.812 10.56,17.01 10.526,17.207L7.427,16.613ZM12.419,17.871L16.659,18.689L15.001,21.558L11.061,19.282C11.408,18.721 11.872,18.24 12.419,17.871ZM11.743,16.913C11.749,16.813 11.755,16.713 11.761,16.613L12.214,16.613C12.051,16.704 11.894,16.804 11.743,16.913ZM18.688,18.777L17.118,18.477L17.53,17.765C17.967,18.038 18.359,18.38 18.688,18.777ZM18.118,16.748L18.194,16.613L18.347,16.613C18.353,16.713 18.359,16.813 18.365,16.913C18.282,16.86 18.2,16.801 18.118,16.748ZM21.746,9.874C21.438,9.684 21.152,9.461 20.893,9.209C20.641,8.95 20.418,8.664 20.229,8.356L23.822,6.28L21.746,9.874ZM23.581,7.286L22.546,10.273C22.358,10.203 22.175,10.121 21.999,10.026L23.581,7.286ZM21.411,11.044C21.493,11.091 21.581,11.132 21.669,11.173C21.505,11.255 21.34,11.344 21.181,11.438L21.411,11.044ZM21.793,12.443L20.452,16.319L19.523,16.319C19.56,15.123 20.05,13.985 20.893,13.137C21.165,12.872 21.467,12.639 21.793,12.443ZM22.31,19.477L21.881,19.394L23.322,17.73L22.31,19.477ZM22.463,19.806L23.44,19.994L22.216,20.229L22.463,19.806ZM20.905,21.323C20.987,21.376 21.076,21.429 21.158,21.476L20.929,21.876C20.929,21.841 20.934,21.799 20.934,21.764C20.934,21.617 20.917,21.47 20.905,21.323ZM21.034,19.918L20.893,19.794C20.783,19.682 20.679,19.564 20.582,19.441L21.323,19.588L21.034,19.918ZM21.575,20.353C21.464,20.276 21.358,20.2 21.258,20.117L21.658,19.653L22.158,19.747L21.834,20.306L21.575,20.353ZM21.669,21.758C21.505,21.841 21.34,21.929 21.181,22.023L21.411,21.629C21.493,21.676 21.581,21.717 21.669,21.758ZM21.546,19.329L20.317,19.094C20.288,19.047 20.258,18.994 20.229,18.941L23.54,17.03L21.546,19.329ZM20.076,18.689C20.047,18.635 20.021,18.58 19.999,18.524L20.658,16.613L23.675,16.613L20.076,18.689ZM20.929,32.49L21.381,32.49C21.217,32.577 21.058,32.673 20.905,32.778C20.917,32.684 20.923,32.584 20.929,32.49ZM20.911,31.908C21.06,32.013 21.215,32.109 21.375,32.196L20.929,32.196C20.923,32.102 20.917,32.002 20.911,31.908ZM21.575,33.749L23.445,34.107L21.658,34.448L21.258,33.984C21.359,33.899 21.465,33.82 21.575,33.749ZM21.034,34.184L21.323,34.513L20.582,34.66C20.679,34.537 20.783,34.419 20.893,34.307L21.034,34.184ZM21.546,34.772L23.54,37.071L20.229,35.16C20.258,35.107 20.288,35.054 20.317,35.007L21.546,34.772ZM16.453,27.862L16.312,28.274L15.818,27.709C16.033,27.745 16.246,27.796 16.453,27.862ZM15.818,26.392L16.306,25.828L16.453,26.239C16.245,26.305 16.033,26.356 15.818,26.392ZM16.418,28.856L16.706,29.185L15.701,30.932L16.418,28.856ZM16.53,28.533L16.73,27.956C16.856,28.002 16.98,28.055 17.1,28.115L17.188,28.362L16.865,28.915L16.53,28.533ZM18.365,27.492L18.118,27.333L18.347,26.939C18.347,26.974 18.341,27.01 18.341,27.051C18.341,27.198 18.353,27.345 18.365,27.492ZM17.483,25.781L18.194,23.74L19.047,24.234C18.656,24.866 18.119,25.397 17.483,25.781ZM18.1,26.78L17.865,27.186C17.776,27.135 17.683,27.09 17.588,27.051C17.764,26.97 17.935,26.88 18.1,26.78ZM17.106,25.98C16.983,26.039 16.859,26.098 16.73,26.151L16.53,25.569L17.724,24.193L17.106,25.98ZM17.312,28.727L17.724,29.903L17.071,29.15L17.312,28.727ZM17.506,28.391L17.53,28.35C18.146,28.732 18.666,29.251 19.047,29.868L18.188,30.361L17.506,28.391ZM19.194,30.126C19.537,30.764 19.728,31.472 19.752,32.196L19.705,32.196L18.335,30.62L19.194,30.126ZM18.335,23.487L19.752,21.846C19.739,22.592 19.547,23.324 19.194,23.981L18.335,23.487ZM18.5,22.846L19.094,21.129L19.694,21.017C19.717,21.147 19.729,21.282 19.741,21.417L18.5,22.846ZM18.029,23.305L15.471,21.829L18.764,21.194L18.029,23.305ZM17.882,23.564L16.418,25.251L15.324,22.082L17.882,23.564ZM16.195,25.51L15.389,26.439C15.324,26.445 15.266,26.451 15.201,26.451L15.201,22.634L16.195,25.51ZM15.389,27.662L16.201,28.597L15.201,31.467L15.201,27.651C15.266,27.651 15.324,27.656 15.389,27.662ZM16.912,29.421L17.882,30.544L15.46,31.943L16.912,29.421ZM18.029,30.797L18.512,32.196L15.607,32.196L18.029,30.797ZM18.617,32.49L18.759,32.908L16.6,32.49L18.617,32.49ZM18.5,31.255L19.317,32.196L18.823,32.196L18.5,31.255ZM19.57,32.49L19.741,32.684C19.729,32.82 19.717,32.955 19.694,33.084L19.094,32.972L18.929,32.49L19.57,32.49ZM19.823,35.977L20.346,37.489L19.523,37.489C19.54,36.972 19.642,36.462 19.823,35.977ZM19.999,35.578C20.021,35.521 20.047,35.466 20.076,35.413L23.675,37.489L20.658,37.489L19.999,35.578ZM20.076,29.274C19.332,27.887 19.332,26.215 20.076,24.828L23.928,27.051L20.076,29.274ZM20.346,16.613L19.823,18.13C19.642,17.644 19.54,17.131 19.523,16.613L20.346,16.613ZM19.635,20.729L19.206,20.811L19.453,20.1C19.528,20.305 19.588,20.515 19.635,20.729ZM18.87,20.876L15.883,21.452L19.194,19.535C19.223,19.594 19.253,19.647 19.276,19.706L18.87,20.876ZM15.454,21.358L16.965,18.747L18.947,19.13C18.982,19.182 19.017,19.23 19.047,19.282L15.454,21.358ZM16.812,18.418L12.778,17.642C13.477,17.258 14.262,17.055 15.06,17.054C15.834,17.057 16.595,17.251 17.277,17.618L16.812,18.418ZM14.289,26.392C13.781,26.309 13.29,26.143 12.837,25.898L13.243,25.187L14.289,26.392ZM13.401,24.916L14.907,22.305L14.907,26.457C14.848,26.451 14.783,26.445 14.725,26.445L13.401,24.916ZM12.578,25.751C11.224,24.911 10.386,23.439 10.355,21.846L13.043,24.951L12.578,25.751ZM12.519,27.051C12.427,27.091 12.337,27.136 12.249,27.186L12.172,27.051L12.249,26.915C12.337,26.963 12.431,27.01 12.519,27.051ZM9.879,18.941C9.656,19.302 9.385,19.63 9.073,19.918L6.568,17.03L9.879,18.941ZM9.179,21.876L8.95,21.476C9.038,21.423 9.12,21.37 9.203,21.311C9.191,21.458 9.173,21.605 9.173,21.752C9.173,21.793 9.179,21.835 9.179,21.876ZM8.85,20.112C8.694,20.237 8.531,20.353 8.362,20.459L6.786,17.73L8.85,20.112ZM8.109,20.606C7.468,20.947 6.758,21.136 6.033,21.158L6.033,17.013L8.109,20.606ZM8.697,21.623L9.226,22.546C9.436,24.078 10.239,25.468 11.461,26.416L11.831,27.051L11.461,27.686C10.239,28.634 9.436,30.023 9.226,31.555L8.697,32.473C7.877,32.031 6.964,31.789 6.033,31.767L6.033,22.334C6.965,22.313 7.878,22.069 8.697,21.623ZM9.203,32.79C9.12,32.731 9.038,32.678 8.95,32.626L9.179,32.226C9.179,32.267 9.173,32.308 9.173,32.349C9.173,32.496 9.191,32.643 9.203,32.79ZM8.85,33.99L6.786,36.377L8.362,33.643C8.531,33.748 8.694,33.864 8.85,33.99ZM8.109,33.496L6.033,37.089L6.033,32.943C6.758,32.966 7.468,33.155 8.109,33.496ZM9.073,34.184C9.385,34.471 9.656,34.8 9.879,35.16L6.568,37.071L9.073,34.184ZM10.026,35.419C10.227,35.793 10.377,36.193 10.473,36.607L6.715,37.33L10.026,35.419ZM12.584,28.35L13.043,29.15L10.355,32.255C10.384,30.66 11.225,29.186 12.584,28.35ZM12.837,28.203C13.29,27.96 13.781,27.793 14.289,27.709L13.248,28.915L12.837,28.203ZM14.725,27.656C14.783,27.656 14.848,27.651 14.907,27.645L14.907,31.796L13.401,29.185L14.725,27.656ZM16.812,35.683L17.277,36.483C16.595,36.851 15.834,37.045 15.06,37.048C14.262,37.046 13.477,36.844 12.778,36.46L16.812,35.683ZM16.965,35.354L15.46,32.743L19.047,34.819C19.017,34.872 18.982,34.919 18.947,34.972L16.965,35.354ZM15.889,32.649L18.87,33.225L19.276,34.396C19.253,34.454 19.223,34.507 19.194,34.566L15.889,32.649ZM19.206,33.29L19.635,33.372C19.588,33.586 19.528,33.796 19.453,34.002L19.206,33.29ZM20.452,37.783L21.793,41.658C21.467,41.463 21.165,41.23 20.893,40.964C20.05,40.116 19.56,38.978 19.523,37.783L20.452,37.783ZM21.669,42.928C21.581,42.969 21.493,43.011 21.411,43.058L21.181,42.664C21.34,42.758 21.505,42.846 21.669,42.928ZM21.746,44.228L23.822,47.821L20.229,45.745C20.601,45.122 21.123,44.6 21.746,44.228ZM21.999,44.075C22.175,43.981 22.358,43.898 22.546,43.828L23.575,46.809L21.999,44.075ZM22.822,43.728C23.229,43.605 23.65,43.536 24.075,43.522L24.075,47.345L22.822,43.728ZM22.175,41.87L20.764,37.783L24.075,37.783L24.075,42.334C23.416,42.313 22.769,42.155 22.175,41.87ZM21.881,34.707L24.075,34.284L24.075,37.242L21.881,34.707ZM21.946,33.519C22.599,33.158 23.329,32.958 24.075,32.937L24.075,33.931L21.946,33.519ZM20.893,30.379C20.641,30.12 20.418,29.834 20.229,29.526L24.075,27.304L24.075,31.749C22.879,31.712 21.741,31.222 20.893,30.379ZM20.229,24.575C20.418,24.267 20.641,23.981 20.893,23.722C21.741,22.879 22.879,22.389 24.075,22.352L24.075,26.798L20.229,24.575ZM21.999,20.611L22.022,20.564L24.075,20.17L24.075,21.164C23.349,21.145 22.638,20.956 21.999,20.611ZM22.616,19.535L24.075,17.013L24.075,19.818L22.616,19.535ZM20.764,16.319L22.175,12.232C22.769,11.947 23.416,11.789 24.075,11.767L24.075,16.319L20.764,16.319ZM22.822,10.373L24.075,6.757L24.075,10.579C23.65,10.566 23.229,10.497 22.822,10.373ZM19.211,8.944C19.695,9.74 20.363,10.407 21.158,10.891L20.623,11.826C19.406,12.764 18.607,14.144 18.4,15.666L18.024,16.319L17.288,16.319C16.582,16.026 15.824,15.877 15.06,15.878C14.293,15.878 13.534,16.028 12.825,16.319L11.761,16.319C11.736,15.387 11.492,14.475 11.049,13.655L19.211,8.944ZM10.914,19.535L14.854,21.811L13.196,24.681L10.373,21.417C10.416,20.758 10.601,20.116 10.914,19.535ZM10.032,14.243C10.372,14.883 10.561,15.594 10.585,16.319L6.439,16.319L10.032,14.243ZM3.534,20.541C2.083,19.7 1.186,18.145 1.186,16.468C1.186,13.886 3.31,11.762 5.892,11.761C7.516,11.76 9.029,12.605 9.879,13.99L5.815,16.336C5.815,16.342 5.815,16.342 5.81,16.342C5.81,16.348 5.804,16.348 5.798,16.354L5.792,16.354L5.792,16.36C5.78,16.366 5.78,16.372 5.774,16.377C5.774,16.383 5.763,16.383 5.763,16.395C5.757,16.401 5.763,16.407 5.757,16.413C5.757,16.419 5.751,16.424 5.745,16.43L5.745,16.46L5.739,16.466L5.739,21.164C4.964,21.14 4.207,20.926 3.534,20.541ZM8.238,41.711C7.524,42.121 6.716,42.337 5.892,42.337C3.314,42.337 1.19,40.22 1.182,37.642C1.174,35.113 3.212,33.01 5.739,32.937L5.739,37.636L5.745,37.642L5.745,37.671C5.751,37.677 5.757,37.683 5.757,37.689C5.763,37.695 5.757,37.706 5.763,37.712C5.763,37.718 5.774,37.718 5.774,37.724C5.78,37.73 5.78,37.736 5.792,37.742L5.792,37.748C5.795,37.748 5.798,37.75 5.798,37.753C5.802,37.754 5.806,37.756 5.81,37.759C5.813,37.759 5.815,37.762 5.815,37.765L9.879,40.111C9.474,40.773 8.91,41.323 8.238,41.711ZM10.032,39.859L6.439,37.783L10.585,37.783C10.561,38.508 10.372,39.218 10.032,39.859ZM7.427,37.489L10.526,36.895C10.56,37.091 10.58,37.29 10.585,37.489L7.427,37.489ZM10.373,32.684L13.201,29.421L14.854,32.29L10.914,34.566C10.601,33.985 10.416,33.343 10.373,32.684ZM11.049,40.447C11.492,39.627 11.736,38.714 11.761,37.783L12.825,37.783C13.534,38.073 14.293,38.223 15.06,38.224C15.824,38.225 16.582,38.075 17.288,37.783L18.029,37.783L18.4,38.43C18.607,39.955 19.406,41.339 20.623,42.281L21.158,43.211C20.363,43.694 19.695,44.362 19.211,45.157L11.049,40.447ZM27.55,51.549C26.668,52.432 25.47,52.929 24.222,52.929C21.641,52.929 19.517,50.805 19.517,48.225C19.517,48.223 19.517,48.222 19.517,48.221C19.514,47.445 19.706,46.68 20.076,45.998L24.151,48.35C24.158,48.349 24.164,48.352 24.169,48.356L24.175,48.362L24.204,48.362C24.21,48.362 24.216,48.368 24.222,48.368C24.228,48.368 24.233,48.362 24.239,48.362L24.269,48.362L24.275,48.356C24.279,48.352 24.286,48.349 24.292,48.35L28.367,45.998C28.737,46.68 28.929,47.445 28.926,48.221C28.929,49.469 28.433,50.668 27.55,51.549ZM29.232,45.157C28.748,44.362 28.081,43.694 27.285,43.211L27.821,42.281C29.037,41.339 29.836,39.955 30.043,38.43L30.414,37.783L31.155,37.783C31.862,38.075 32.619,38.225 33.384,38.224C34.15,38.223 34.909,38.073 35.618,37.783L36.683,37.783C36.708,38.714 36.952,39.627 37.394,40.447L29.232,45.157ZM37.529,34.566L33.589,32.29L35.242,29.421L38.07,32.684C38.024,33.343 37.84,33.984 37.529,34.566ZM38.412,39.859C38.071,39.218 37.882,38.508 37.859,37.783L42.005,37.783L38.412,39.859ZM46.627,39.988C45.792,41.444 44.237,42.345 42.559,42.345C40.932,42.345 39.417,41.498 38.564,40.111L42.628,37.765C42.628,37.762 42.631,37.759 42.634,37.759C42.637,37.756 42.641,37.754 42.646,37.753C42.646,37.75 42.648,37.748 42.651,37.748L42.651,37.742C42.663,37.736 42.663,37.73 42.669,37.724C42.669,37.718 42.681,37.718 42.681,37.712C42.687,37.706 42.681,37.695 42.687,37.689C42.687,37.683 42.698,37.683 42.698,37.677L42.698,37.642L42.704,37.636L42.704,32.937C45.232,33.01 47.269,35.113 47.262,37.642C47.261,38.466 47.042,39.276 46.627,39.988Z" style="fill-rule:nonzero;"/>
    </g>
</svg>
