<svg id="Layer_1" data-name="Layer 1" xmlns="http://www.w3.org/2000/svg" viewBox="0 0 335.8 73.6"><path d="M22.31,24.25V29h14.6v6.4H22.51v35.9q4.8.7,6.7,1.1a1.73,1.73,0,0,1,1.5,1.9v4.3H5.91v-4.3a1.73,1.73,0,0,1,1.5-1.9l6.2-1.1V35.55L8,34.85c-1.6-.4-2.4-1.16-2.4-2.3V29h8v-4.9q0-8.79,4.7-13.5T31,5.85a22,22,0,0,1,6.3,1l-.2,4.5a1.18,1.18,0,0,1-.9,1.2,8.33,8.33,0,0,1-2.3.2h-1.4Q22.31,12.75,22.31,24.25Z" transform="translate(-5.61 -5.85)"/><path d="M73.71,29a22.6,22.6,0,0,1,7.7,5.2,21.53,21.53,0,0,1,4.8,8.2,32.88,32.88,0,0,1,1.7,10.8A32.8,32.8,0,0,1,86.21,64a21.38,21.38,0,0,1-4.8,8.2,22.46,22.46,0,0,1-7.7,5.2,26.69,26.69,0,0,1-10,1.8,26.69,26.69,0,0,1-10-1.8,22.46,22.46,0,0,1-7.7-5.2,23.31,23.31,0,0,1-4.9-8.2,31.15,31.15,0,0,1-1.6-10.8,31.22,31.22,0,0,1,1.6-10.8,23.4,23.4,0,0,1,4.9-8.2,22.6,22.6,0,0,1,7.7-5.2,26.69,26.69,0,0,1,10-1.8A26.69,26.69,0,0,1,73.71,29Zm1.2,38.4q3.7-5.19,3.7-14.1t-3.7-14.1q-3.5-5-11.2-5a16.22,16.22,0,0,0-6.6,1.2,12.38,12.38,0,0,0-4.6,3.8,17.82,17.82,0,0,0-2.8,6,33.54,33.54,0,0,0-1,8.2,32.65,32.65,0,0,0,1,8,17.64,17.64,0,0,0,2.8,6,11.24,11.24,0,0,0,4.6,3.6,16.17,16.17,0,0,0,6.6,1.4Q71.41,72.35,74.91,67.35Z" transform="translate(-5.61 -5.85)"/><path d="M124.61,27a13.15,13.15,0,0,1,6.9,1.8l-1.1,6.7c-.2.87-.63,1.3-1.3,1.3a9.66,9.66,0,0,1-2.4-.5,14.78,14.78,0,0,0-4.1-.5q-8.81,0-13,10.6v25l5.7,1.1a1.73,1.73,0,0,1,1.5,1.9v4.2H93.51v-4.2a1.73,1.73,0,0,1,1.5-1.9l5.7-1.1V35.25q-4.8-.9-5.7-1.2a1.72,1.72,0,0,1-1.5-1.9V28h12.3a2.72,2.72,0,0,1,1.9.5,4,4,0,0,1,.8,1.9l.6,7.9h.1Q114.81,27,124.61,27Z" transform="translate(-5.61 -5.85)"/><path d="M145.81,76q-3.19-3.2-3.2-9.6v-31h-6.1a2.16,2.16,0,0,1-1.4-.4,1.83,1.83,0,0,1-.5-1.5V30l8.3-1.1,2-15.7a1.35,1.35,0,0,1,.6-1.2,2.22,2.22,0,0,1,1.4-.4h4.5V29h14.5v6.5h-14.5v30.4q0,3.3,1.5,4.8a5.55,5.55,0,0,0,4.1,1.5,9.09,9.09,0,0,0,2.5-.4,10.13,10.13,0,0,0,1.8-.8l.6-.4.6-.4a3.74,3.74,0,0,1,1-.4,1.42,1.42,0,0,1,1.2.8l2.6,4.2a19,19,0,0,1-5.6,3.4,19.46,19.46,0,0,1-6.7,1.2Q149.2,79.35,145.81,76Z" transform="translate(-5.61 -5.85)"/><path d="M211.51,65.35v-30q-.9-.3-5.7-1.2a1.72,1.72,0,0,1-1.5-1.9V28h16.1v43.4q4.8.9,5.7,1.2a1.67,1.67,0,0,1,1.5,1.8v4.3h-12.5a2.37,2.37,0,0,1-2.4-1.9l-.7-5.4q-7.2,8.1-16.8,8.1-8.1,0-12.6-5.3t-4.4-13.9v-25c-3.07-.6-4.93-1-5.6-1.2a1.75,1.75,0,0,1-1.6-1.9V28h16.2v32.2q0,6,2.6,9t8,3.1v.1Q205.31,72.35,211.51,65.35Z" transform="translate(-5.61 -5.85)"/><path d="M266,27.05q8.19,0,12.6,5.3t4.3,13.9v24.9q4.8.9,5.7,1.2a1.76,1.76,0,0,1,1.6,1.9v4.3H274V46.35q0-12.19-10.6-12.2-7.5,0-13.8,7.1v30c.26,0,2.2.4,5.8,1.2a1.73,1.73,0,0,1,1.5,1.9v4.2h-23.3v-4.2a1.7,1.7,0,0,1,1.4-1.9l5.8-1.1V35.25a57.41,57.41,0,0,1-5.8-1.2,1.7,1.7,0,0,1-1.4-1.9V28H246a2.35,2.35,0,0,1,2.4,1.8l.8,5.5v-.1Q256.71,27.05,266,27.05Z" transform="translate(-5.61 -5.85)"/><path d="M341,72.8a2.14,2.14,0,0,1,.4,1.25v4.3H331a6.68,6.68,0,0,1-2.1-.4c-.47-.13-.8-.66-1-1.6l-1-4.8-4,3.3a16.52,16.52,0,0,1-4,2.4,22.66,22.66,0,0,1-4.4,1.5,23.44,23.44,0,0,1-5.4.5,16.36,16.36,0,0,1-5.4-.9,13,13,0,0,1-4.5-2.4,12.43,12.43,0,0,1-3-4.2,13.86,13.86,0,0,1-1.1-6,10.84,10.84,0,0,1,1.6-5.8,15.18,15.18,0,0,1,5.4-5,35.21,35.21,0,0,1,9.6-3.6,68.73,68.73,0,0,1,14.6-1.3v-3.9q0-5.9-2.6-9a9.28,9.28,0,0,0-7.5-3.1,15.05,15.05,0,0,0-5.5.9,20.85,20.85,0,0,0-3.8,1.8c-.4.27-.85.55-1.35.85l-1.55.95a3.83,3.83,0,0,1-2.3.8,2.52,2.52,0,0,1-1.6-.4,4.16,4.16,0,0,1-1-1.2l-1.6-2.8a29.67,29.67,0,0,1,9-6,26.93,26.93,0,0,1,10.8-2,18.49,18.49,0,0,1,7.6,1.4,16.25,16.25,0,0,1,5.5,3.8,15.58,15.58,0,0,1,3.4,6,24.83,24.83,0,0,1,1.1,7.8v25.3c3.2.67,4.86,1,5,1.1v-.2A1.64,1.64,0,0,1,341,72.8Zm-25.3-16.35a32,32,0,0,0-7,2.1,9.86,9.86,0,0,0-4,3,6.75,6.75,0,0,0-1.2,3.8,9.31,9.31,0,0,0,.7,3.4,5.46,5.46,0,0,0,1.8,2.4,7.75,7.75,0,0,0,2.6,1.3,11.4,11.4,0,0,0,3.3.5,18.62,18.62,0,0,0,4.2-.5,19.67,19.67,0,0,0,3.7-1.3,15.44,15.44,0,0,0,3.3-2.2c.66-.53,1.66-1.46,3-2.8V55.75A62.06,62.06,0,0,0,315.71,56.45Z" transform="translate(-5.61 -5.85)"/></svg>