<?xml version="1.0" encoding="utf-8"?>
<!-- Generator: Adobe Illustrator 23.0.2, SVG Export Plug-In . SVG Version: 6.00 Build 0)  -->
<svg version="1.1" id="Layer_1" xmlns="http://www.w3.org/2000/svg" xmlns:xlink="http://www.w3.org/1999/xlink" x="0px" y="0px"
	 viewBox="0 0 1561.8 416.9" style="enable-background:new 0 0 1561.8 416.9;" xml:space="preserve">
<style type="text/css">
	.st0{fill:#FFFFFF;}
	.st1{fill:none;stroke:#FFFFFF;stroke-width:16;stroke-miterlimit:10;}
	.st2{fill:#019547;}
</style>
<g>
	<path class="st0" d="M542.9,318.6c-11.9,0-22.9-3.1-33.1-9.3c-10.2-6.2-18.3-14.3-24.3-24.5c-6.1-10.1-9.1-21.1-9.1-32.7v-37.8
		c0-11.7,3-22.5,8.9-32.6c6-10,14-18.1,24.1-24.1c10.2-6.1,21.3-9.1,33.4-9.1c11.9,0,22.9,3,33.1,8.9c10.2,6,18.3,13.9,24.3,23.8
		c6.1,9.9,9.1,20.9,9.1,33.1v37.8c0,11.4-3,22.3-9.1,32.5c-6.1,10.3-14.2,18.5-24.3,24.7C565.8,315.5,554.8,318.6,542.9,318.6z
		 M542.9,297.6c8.2,0,15.5-2.2,22-6.5c6.5-4.3,11.8-10,15.8-17c4-7,6-14.3,6-22v-37.8c0-7.7-1.9-14.9-5.8-21.7
		c-3.8-6.8-9.1-12.3-15.8-16.6c-6.7-4.3-14.1-6.5-22.2-6.5c-8.2,0-15.5,2.2-22.1,6.5c-6.5,4.3-11.8,9.9-15.8,16.6
		c-4,6.8-5.9,14-5.9,21.7v37.8c0,7.7,1.9,15,5.8,22c3.9,7,9.2,12.7,15.9,17C527.6,295.5,535,297.6,542.9,297.6z"/>
	<path class="st0" d="M658,316.2c-3,0-5.7-0.9-7.9-2.8c-2.2-1.9-3.3-4-3.3-6.3V159.4c0-2.8,1.1-5,3.3-6.5c2.2-1.5,4.8-2.3,7.9-2.3
		c3,0,5.6,0.8,7.7,2.3c2.1,1.5,3.2,3.7,3.2,6.5v15.8c3.7-6.8,9.6-12.9,17.5-18.4c7.9-5.5,17.7-8.2,29.4-8.2c11.2,0,21.5,3,31,8.9
		c9.5,6,17,13.9,22.6,23.8c5.6,9.9,8.4,20.9,8.4,33.1v92.8c0,3-1.2,5.3-3.5,6.8c-2.3,1.5-5,2.3-8,2.3c-2.6,0-5.1-0.8-7.5-2.3
		c-2.5-1.5-3.7-3.8-3.7-6.8v-92.8c0-7.7-2-14.9-5.9-21.7c-4-6.8-9.2-12.3-15.8-16.6c-6.5-4.3-13.8-6.5-21.7-6.5
		c-7,0-13.7,1.8-20.1,5.4c-6.4,3.6-11.7,8.7-15.8,15.2c-4.1,6.5-6.1,14.6-6.1,24.2v92.8c0,2.3-1.1,4.4-3.3,6.3
		C664,315.2,661.3,316.2,658,316.2z"/>
	<path class="st0" d="M889,318.6c-14.7,0-27.7-2.8-39-8.4c-11.3-5.6-20.2-13.4-26.6-23.3c-6.4-9.9-9.6-21.5-9.6-34.8v-38.8
		c0-11.7,3-22.5,9.1-32.4c6.1-9.9,14.2-17.8,24.3-23.6c10.2-5.8,21.3-8.8,33.4-8.8c11.7,0,22.5,2.7,32.4,8.2
		c9.9,5.5,17.9,13,24,22.6c6.1,9.6,9.1,20.6,9.1,33.3c0,8.9-1.5,15.3-4.5,19.3c-3,4-6.8,6.4-11.4,7.2c-4.5,0.8-9.4,1.2-14.5,1.2
		h-79.1v13c0,14,5,25.1,15,33.3c10,8.2,22.8,12.3,38.2,12.3c9.3,0,16.6-1.2,21.7-3.5c5.1-2.3,9.2-4.7,12.1-7
		c2.9-2.3,5.7-3.5,8.2-3.5c1.9,0,3.6,0.6,5.1,1.9c1.5,1.3,2.7,2.7,3.5,4.4c0.8,1.6,1.2,3.2,1.2,4.6c0,2.6-2.1,5.7-6.3,9.4
		c-4.2,3.7-10.3,6.9-18.2,9.6C909.1,317.3,899.8,318.6,889,318.6z M836.5,223.4h70c7,0,11.7-0.8,14-2.3c2.3-1.5,3.5-4.7,3.5-9.6
		c0-7.5-1.9-14.5-5.6-21.2c-3.7-6.6-8.9-12.1-15.4-16.4c-6.5-4.3-14.1-6.5-22.8-6.5c-7.9,0-15.2,2-21.9,6c-6.7,4-12,9.1-15.9,15.4
		c-4,6.3-6,13.4-6,21.4V223.4z"/>
	<path class="st0" d="M1016.8,318.6c-13.3,0-24.6-3.8-33.8-11.4c-9.2-7.6-13.8-19.2-13.8-34.8c0-12.8,3.4-22.7,10.3-29.6
		c6.9-6.9,16.5-11.7,28.7-14.3c12.3-2.7,26.4-4,42.5-4h17.8v-8c0-7.7-1.3-15.2-4-22.6c-2.7-7.3-7-13.4-12.9-18.2
		c-6-4.8-14.1-7.2-24.3-7.2c-7.7,0-14,0.8-18.9,2.5c-4.9,1.6-8.8,3.3-11.5,5.1s-5.1,2.6-7,2.6c-2.8,0-5.1-1.4-6.8-4.2
		s-2.6-5.4-2.6-7.7c0-3.3,2.5-6.2,7.4-8.9c4.9-2.7,11-4.9,18.4-6.6c7.3-1.8,14.6-2.6,21.9-2.6c15.6,0,28.1,3.2,37.3,9.6
		c9.2,6.4,15.9,14.8,20,25c4.1,10.3,6.1,21.2,6.1,32.9v91c0,2.6-1,4.7-3,6.5c-2,1.8-4.7,2.6-8.2,2.6c-2.8,0-5.3-0.9-7.5-2.6
		c-2.2-1.8-3.3-3.9-3.3-6.5v-15.4c-5.8,7-13.1,13.2-21.7,18.7C1038.9,315.9,1028.7,318.6,1016.8,318.6z M1022.4,299.4
		c7.7,0,15-2,22-6c7-4,12.8-8.8,17.3-14.5c4.5-5.7,6.8-11.1,6.8-16.3v-22.4h-14.7c-10.5,0-20.5,0.6-29.9,1.9
		c-9.5,1.3-17.2,4-23.1,8.2c-6,4.2-8.9,10.8-8.9,20c0,10,3,17.4,8.9,22C1006.8,297,1014,299.4,1022.4,299.4z"/>
	<path class="st0" d="M1198.8,318.6c-12.4,0-23.6-3-33.8-9.1c-10.2-6.1-18.2-14.2-24.2-24.3c-5.9-10.2-8.9-20.9-8.9-32.4v-93.1
		c0-2.3,1.2-4.4,3.5-6.3c2.3-1.9,5-2.8,8-2.8c3,0,5.7,0.9,7.9,2.8c2.2,1.9,3.3,4,3.3,6.3v93.1c0,7.7,2,14.9,6,21.7
		c4,6.8,9.3,12.3,15.9,16.6c6.7,4.3,14.1,6.5,22.2,6.5c8.2,0,15.5-2.1,22-6.3c6.5-4.2,11.7-9.7,15.6-16.6c3.8-6.9,5.8-14.2,5.8-21.9
		v-93.5c0-2.3,1.2-4.4,3.5-6.1c2.3-1.8,5-2.6,8-2.6c3.5,0,6.2,0.9,8.2,2.6c2,1.8,3,3.8,3,6.1v93.5c0,11.7-3,22.5-8.9,32.5
		c-6,10-14,18.1-24.2,24.2C1221.7,315.6,1210.7,318.6,1198.8,318.6z"/>
	<path class="st0" d="M1361.9,316.2c-18,0-31.7-2.8-41.3-8.4c-9.6-5.6-14.3-14.6-14.3-27V153.9c0-1.9,1.2-3.4,3.7-4.5
		c2.5-1,5-1.6,7.5-1.6c3,0,5.7,0.5,8,1.6c2.3,1,3.5,2.5,3.5,4.5v48.2h45.5c2.3,0,4.2,0.6,5.6,1.9c1.4,1.3,2.1,2.8,2.1,4.6
		c0,1.8-0.7,3.3-2.1,4.6c-1.4,1.3-3.3,1.9-5.6,1.9H1329v65.6c0,7.9,2.5,13.4,7.3,16.5c4.9,3.1,13.4,4.7,25.6,4.7h9.8
		c3.3,0,5.8,0.7,7.5,2c1.8,1.4,2.6,3,2.6,4.9s-0.9,3.6-2.6,5.1c-1.8,1.4-4.3,2.2-7.5,2.2H1361.9z"/>
	<path class="st0" d="M1421.7,316.2c-3,0-5.7-0.6-7.9-1.8c-2.2-1.2-3.3-2.5-3.3-4V154c0-1.8,1.1-3.1,3.3-4.1c2.2-1,4.8-1.4,7.9-1.4
		c3.3,0,6,0.5,8.2,1.4c2.2,1,3.3,2.3,3.3,4.1v73.6c4-4.2,9.8-8.1,17.5-11.5c7.7-3.4,17.3-5.2,28.7-5.2c11.2,0,21.5,1.9,31,5.6
		c9.5,3.7,17,8.7,22.6,14.9c5.6,6.2,8.4,13.1,8.4,20.8v58.2c0,1.9-1.2,3.3-3.5,4.3c-2.3,1-5,1.4-8,1.4c-2.6,0-5.1-0.5-7.5-1.4
		c-2.5-1-3.7-2.4-3.7-4.3v-58.2c0-4.8-2-9.4-6-13.6c-4-4.2-9.2-7.7-15.8-10.4c-6.5-2.7-13.8-4.1-21.7-4.1c-7,0-13.7,1.1-20.1,3.4
		c-6.4,2.3-11.7,5.5-15.8,9.6c-4.1,4.1-6.1,9.2-6.1,15.2v58.2c0,1.5-1.1,2.8-3.3,4C1427.7,315.6,1425,316.2,1421.7,316.2z"/>
</g>
<g>
	<polygon class="st1" points="332.3,124.9 187.4,40.4 41.7,123.6 40.9,291.4 185.9,375.9 331.5,292.7 	"/>
	<circle class="st2" cx="187.4" cy="42.3" r="36.8"/>
	<circle class="st0" cx="331.2" cy="126" r="36.8"/>
	<circle class="st2" cx="329.7" cy="291.1" r="36.8"/>
	<circle class="st2" cx="42.5" cy="291.1" r="36.8"/>
	<circle class="st0" cx="41.7" cy="125" r="36.8"/>
	<circle class="st0" cx="186.5" cy="374.6" r="36.8"/>
</g>
</svg>
