<svg id="Layer_1" data-name="Layer 1" xmlns="http://www.w3.org/2000/svg" viewBox="0 0 1862.45 405.9">
  <defs>
    <style>
      .cls-1 {
        fill: #fff;
      }

      .cls-2 {
        fill: none;
        stroke: #fff;
        stroke-miterlimit: 10;
        stroke-width: 16px;
      }

      .cls-3 {
        fill: #019547;
      }
    </style>
  </defs>
  <title>oneauth_white</title>
  <g>
    <path class="cls-1" d="M446.93,207.64c0-73.58,40.48-118.23,98.18-118.23s98.18,44.78,98.18,118.23S602.8,327.52,545.11,327.52,446.93,281.21,446.93,207.64Zm166.17,0c0-57.23-27-92.53-68-92.53s-68,35.3-68,92.53,27,94.19,68,94.19S613.1,264.86,613.1,207.64Z" transform="translate(-4.89 -5.52)"/>
    <path class="cls-1" d="M692.66,93.61h30.19L806,238l24.8,47.57h1.4c-1.48-23.18-3.72-49.07-3.72-73.09V93.61h27.76V323.32H826L742.9,178.78l-24.8-47.43h-1.4c1.47,23.24,3.72,47.74,3.72,71.76V323.32H692.66Z" transform="translate(-4.89 -5.52)"/>
    <path class="cls-1" d="M919.11,93.61h132.4v24.74H948.34v72h87v24.74h-87v83.51H1055v24.74H919.11Z" transform="translate(-4.89 -5.52)"/>
    <path class="cls-1" d="M1150.79,93.61h33l77.71,229.71h-31L1190.46,195c-8.25-25.69-15.62-50.9-23-77.41h-1.4c-7.12,26.64-14.49,51.72-22.74,77.41l-40.5,128.29h-29.75ZM1113.93,230h105.78v23.33H1113.93Z" transform="translate(-4.89 -5.52)"/>
    <path class="cls-1" d="M1287.74,228.46V93.61H1317V229.27c0,55.2,23.34,72.56,53.33,72.56,30.44,0,54.47-17.36,54.47-72.56V93.61h28V228.46c0,73.72-35.59,99.06-82.48,99.06S1287.74,302.18,1287.74,228.46Z" transform="translate(-4.89 -5.52)"/>
    <path class="cls-1" d="M1562.27,118.35h-69.49V93.61H1661v24.74h-69.5v205h-29.23Z" transform="translate(-4.89 -5.52)"/>
    <path class="cls-1" d="M1702.05,93.61h29.23v96.2h106.83V93.61h29.23V323.32h-29.23v-108H1731.28v108h-29.23Z" transform="translate(-4.89 -5.52)"/>
  </g>
  <g>
    <polygon class="cls-2" points="327.4 119.4 182.5 34.9 36.8 118.1 36 285.9 181 370.4 326.6 287.2 327.4 119.4"/>
    <circle class="cls-3" cx="182.5" cy="36.8" r="36.8"/>
    <circle class="cls-1" cx="326.3" cy="120.5" r="36.8"/>
    <circle class="cls-3" cx="324.8" cy="285.6" r="36.8"/>
    <circle class="cls-3" cx="37.6" cy="285.6" r="36.8"/>
    <circle class="cls-1" cx="36.8" cy="119.5" r="36.8"/>
    <circle class="cls-1" cx="181.6" cy="369.1" r="36.8"/>
  </g>
</svg>
