<svg id="Layer_1" data-name="Layer 1" xmlns="http://www.w3.org/2000/svg" viewBox="0 0 180.11 36.6">
  <defs>
    <style>
      .cls-1 {
        fill: none;
        stroke: #00a651;
        stroke-miterlimit: 10;
        stroke-width: 1.07px;
      }

      .cls-2 {
        fill: #00aeef;
      }

      .cls-3 {
        fill: #fff;
      }
    </style>
  </defs>
  <title>oneauth_white</title>
  <path class="cls-1" d="M28.68,22.37" transform="translate(-3.9 -3.54)"/>
  <path class="cls-2" d="M31.59,22.37" transform="translate(-3.9 -3.54)"/>
  <g>
    <path class="cls-3" d="M40.17,33q-2.55-3.55-2.56-10.76,0-14.16,10-14.16t10,14.16q0,7.2-2.56,10.76a8.63,8.63,0,0,1-7.48,3.56A8.61,8.61,0,0,1,40.17,33ZM54,22.23q0-11.11-6.32-11.12a5.16,5.16,0,0,0-4.74,2.7q-1.57,2.7-1.58,8.42,0,11.28,6.32,11.28T54,22.23Z" transform="translate(-3.9 -3.54)"/>
    <path class="cls-3" d="M62.53,35.51V9.11c0-.59.51-.88,1.52-.88h1a2.16,2.16,0,0,1,1,.18,1.44,1.44,0,0,1,.6.62l9.28,17.88a14.54,14.54,0,0,1,1,2.52l.2-.08a12,12,0,0,1-.32-2.64V9.11c0-.59.51-.88,1.52-.88h.48c1,0,1.52.29,1.52.88v26.4c0,.59-.5.88-1.52.88h-.84q-1.11,0-1.44-.6L67,17.31a15.37,15.37,0,0,1-1-2.52l-.2.08a11.45,11.45,0,0,1,.32,2.64v18c0,.59-.5.88-1.52.88h-.48C63,36.39,62.53,36.1,62.53,35.51Z" transform="translate(-3.9 -3.54)"/>
    <path class="cls-3" d="M86.59,36a1.35,1.35,0,0,1-.26-.92V9.51a1.35,1.35,0,0,1,.26-.92,1.06,1.06,0,0,1,.82-.28H98.93c.51,0,.76.4.76,1.2v.64c0,.8-.25,1.2-.76,1.2h-9v9.12H98c.51,0,.76.4.76,1.2v.64c0,.8-.25,1.2-.76,1.2H89.93v9.76h9a.63.63,0,0,1,.58.28,1.77,1.77,0,0,1,.18.92v.64a1.77,1.77,0,0,1-.18.92.63.63,0,0,1-.58.28H87.41A1.06,1.06,0,0,1,86.59,36Z" transform="translate(-3.9 -3.54)"/>
    <path class="cls-3" d="M102,35.71a4.15,4.15,0,0,1,.08-.52L109.33,9c.16-.51.69-.76,1.6-.76h1.28c1,0,1.49.25,1.6.76l7.24,26.2a1.34,1.34,0,0,1,.12.52.56.56,0,0,1-.38.5,2.64,2.64,0,0,1-1.1.18H119c-.85,0-1.33-.21-1.44-.64l-1.72-6.56h-8.6l-1.68,6.56c-.11.43-.59.64-1.44.64h-.64C102.5,36.39,102,36.16,102,35.71Zm13-9.56-2.84-11c-.08-.35-.22-1.16-.44-2.44h-.2a9,9,0,0,0-.16.92L111,15.19l-2.84,11Z" transform="translate(-3.9 -3.54)"/>
    <path class="cls-3" d="M126.75,34.43a7.58,7.58,0,0,1-2.34-5.92V9.11c0-.59.51-.88,1.52-.88h.56c1,0,1.52.29,1.52.88V28.63a4.54,4.54,0,0,0,1.5,3.52,5.52,5.52,0,0,0,3.86,1.36,5.42,5.42,0,0,0,3.82-1.38,4.55,4.55,0,0,0,1.5-3.5V9.11c0-.59.51-.88,1.52-.88h.56c1,0,1.52.29,1.52.88v19.4A7.6,7.6,0,0,1,140,34.43a11.36,11.36,0,0,1-13.22,0Z" transform="translate(-3.9 -3.54)"/>
    <path class="cls-3" d="M152.33,35.51V11.35h-5.76c-.51,0-.76-.4-.76-1.2V9.51c0-.8.25-1.2.76-1.2h15a.68.68,0,0,1,.62.28,1.77,1.77,0,0,1,.18.92v.64a1.77,1.77,0,0,1-.18.92.68.68,0,0,1-.62.28h-5.68V35.51c0,.59-.51.88-1.52.88h-.56C152.84,36.39,152.33,36.1,152.33,35.51Z" transform="translate(-3.9 -3.54)"/>
    <path class="cls-3" d="M166.29,35.51V9.11c0-.59.51-.88,1.52-.88h.6c1,0,1.48.29,1.48.88V20.43h10.52V9.11c0-.59.51-.88,1.52-.88h.56c1,0,1.52.29,1.52.88v26.4c0,.59-.51.88-1.52.88h-.56c-1,0-1.52-.29-1.52-.88v-12H169.89v12c0,.59-.49.88-1.48.88h-.6C166.8,36.39,166.29,36.1,166.29,35.51Z" transform="translate(-3.9 -3.54)"/>
  </g>
  <g>
    <path class="cls-3" d="M16.11,8.83a6.91,6.91,0,0,0-3,13.14V37.14a3,3,0,0,0,6,0V22a6.91,6.91,0,0,0-3-13.14Zm0,6.59A2.41,2.41,0,1,1,18.52,13,2.41,2.41,0,0,1,16.11,15.42Z" transform="translate(-3.9 -3.54)"/>
    <path class="cls-3" d="M25.44,15.71a9.26,9.26,0,0,1-2.2,6A1.94,1.94,0,0,0,24,22.92a1.92,1.92,0,0,0,1.46.4.76.76,0,0,0,.16,0,12.17,12.17,0,1,0-19,0A2,2,0,0,0,8,22.92a1.91,1.91,0,0,0,.74-1.31s0-.06,0-.09a9.27,9.27,0,0,1-2-5.81,9.37,9.37,0,1,1,18.74,0Z" transform="translate(-3.9 -3.54)"/>
  </g>
</svg>
