<?xml version="1.0" encoding="utf-8"?>
<!-- Generator: Adobe Illustrator 23.0.2, SVG Export Plug-In . SVG Version: 6.00 Build 0)  -->
<svg version="1.1" id="Layer_1" xmlns="http://www.w3.org/2000/svg" xmlns:xlink="http://www.w3.org/1999/xlink" x="0px" y="0px"
	 viewBox="0 0 1716.8 416.9" style="enable-background:new 0 0 1716.8 416.9;" xml:space="preserve">
<style type="text/css">
	.st0{fill:none;stroke:#020202;stroke-width:16;stroke-miterlimit:10;}
	.st1{fill:#019547;}
	.st2{fill:#010101;}
</style>
<g>
	<path d="M490.6,341.7c-13.5,0-25.8-2.5-36.8-7.3c-11-4.9-19.7-12.8-26.3-23.8c-6.5-11-9.8-25.6-9.8-43.8V158.7
		c0-18.2,3.3-32.8,9.8-43.8c6.5-11,15.3-18.9,26.3-23.8c11-4.9,23.2-7.4,36.8-7.4c13.8,0,26.1,2.5,37.1,7.4
		c11,4.9,19.7,12.8,26.3,23.8c6.5,11,9.8,25.6,9.8,43.8v108.2c0,18.2-3.3,32.8-9.8,43.8c-6.5,11-15.3,18.9-26.3,23.8
		C516.7,339.3,504.4,341.7,490.6,341.7z M490.6,320.4c15.6,0,27.8-4.3,36.6-13c8.8-8.6,13.1-22.2,13.1-40.6V158.7
		c0-18.4-4.4-32-13.3-40.6c-8.9-8.6-21-13-36.4-13c-15.6,0-27.8,4.3-36.4,13c-8.6,8.6-13,22.2-13,40.6v108.2
		c0,18.4,4.4,32,13.1,40.6C463.1,316.1,475.2,320.4,490.6,320.4z"/>
	<path d="M625.7,339.6c-3,0-5.7-0.8-8.1-2.3c-2.3-1.5-3.5-3.8-3.5-6.8v-238c0-3.3,1.2-5.5,3.5-6.8c2.3-1.3,5-1.9,8.1-1.9
		c2.8,0,5.3,0.8,7.3,2.3c2.1,1.5,4.1,3.5,6,6c1.9,2.5,3.5,5.2,4.9,8.2l94.5,185.9V92.5c0-3,1.2-5.3,3.5-6.6c2.3-1.4,5-2.1,8.1-2.1
		c2.8,0,5.4,0.7,7.9,2.1c2.4,1.4,3.7,3.6,3.7,6.6v238c0,3-1.2,5.3-3.7,6.8c-2.5,1.5-5.1,2.3-7.9,2.3c-3.3,0-6.2-1.3-8.9-4
		c-2.7-2.7-4.8-5.8-6.5-9.3L637.3,137v193.5c0,3-1.2,5.3-3.7,6.8C631.1,338.9,628.5,339.6,625.7,339.6z"/>
	<path d="M825.2,339.6c-2.6,0-5-0.8-7.2-2.3c-2.2-1.5-3.3-3.8-3.3-6.8V92.9c0-3,1.1-5.3,3.3-6.8c2.2-1.5,4.6-2.3,7.2-2.3h124.6
		c3,0,5.3,1.1,6.6,3.3c1.4,2.2,2.1,4.6,2.1,7.2c0,2.8-0.8,5.3-2.3,7.5c-1.5,2.2-3.7,3.3-6.5,3.3h-112v96.3h55c2.8,0,5,1,6.5,3.1
		c1.5,2.1,2.3,4.6,2.3,7.4c0,2.3-0.7,4.5-2.1,6.6c-1.4,2.1-3.6,3.2-6.6,3.2h-55v96.6h112c2.8,0,5,1.1,6.5,3.2
		c1.5,2.1,2.3,4.7,2.3,7.7c0,2.6-0.7,5-2.1,7.2c-1.4,2.2-3.6,3.3-6.6,3.3H825.2z"/>
	<path d="M986.2,339.6c-1.9,0-3.8-0.4-6-1.2c-2.1-0.8-3.8-2-5.3-3.5c-1.4-1.5-2.1-3.2-2.1-5.1c0-0.9,0.1-1.8,0.3-2.5l73.2-237.3
		c0.9-3,2.7-5.2,5.3-6.5c2.6-1.3,5.4-1.9,8.4-1.9c3.3,0,6.2,0.7,8.9,2.1c2.7,1.4,4.4,3.5,5.1,6.3l72.8,237.3
		c0.2,0.7,0.3,1.4,0.3,2.1c0,1.9-0.7,3.6-2.1,5.1c-1.4,1.5-3.2,2.7-5.3,3.7c-2.1,0.9-4.3,1.4-6.7,1.4c-1.9,0-3.6-0.5-5.3-1.4
		c-1.6-0.9-2.8-2.5-3.5-4.5l-16.1-53.9h-96.6l-16.1,53.9c-0.7,2.1-1.9,3.6-3.5,4.5C990.5,339.2,988.5,339.6,986.2,339.6z
		 M1017.4,259.8h85l-42.3-141.1L1017.4,259.8z"/>
	<path d="M1252.6,341.7c-13.8,0-26.1-2.5-37.1-7.3c-11-4.9-19.7-12.8-26.3-23.8c-6.5-11-9.8-25.6-9.8-43.8V92.5c0-3,1.2-5.3,3.5-6.6
		c2.3-1.4,5-2.1,8-2.1c3,0,5.7,0.7,8,2.1c2.3,1.4,3.5,3.6,3.5,6.6v174.3c0,18.2,4.4,31.7,13.3,40.4c8.9,8.8,21.1,13.1,36.8,13.1
		c15.9,0,28.2-4.4,37.1-13.1c8.9-8.8,13.3-22.2,13.3-40.4V92.5c0-3,1.2-5.3,3.5-6.6c2.3-1.4,5-2.1,8-2.1c3,0,5.7,0.7,8,2.1
		c2.3,1.4,3.5,3.6,3.5,6.6v174.3c0,18.2-3.2,32.8-9.6,43.8c-6.4,11-15.2,18.9-26.4,23.8C1278.8,339.3,1266.3,341.7,1252.6,341.7z"/>
	<path d="M1434.9,339.6c-3,0-5.7-0.8-8.1-2.3c-2.3-1.5-3.5-3.8-3.5-6.8v-225h-58.8c-2.8,0-5-1.1-6.6-3.3c-1.6-2.2-2.5-4.7-2.5-7.5
		s0.8-5.3,2.5-7.5c1.6-2.2,3.8-3.3,6.6-3.3h140.4c3,0,5.3,1.1,6.6,3.3c1.4,2.2,2.1,4.6,2.1,7.2c0,2.8-0.7,5.4-2.1,7.7
		c-1.4,2.3-3.6,3.5-6.6,3.5h-58.5v225c0,3-1.2,5.3-3.7,6.8C1440.3,338.9,1437.7,339.6,1434.9,339.6z"/>
	<path d="M1556.4,339.6c-3,0-5.7-0.8-8.1-2.3c-2.3-1.5-3.5-3.8-3.5-6.8v-238c0-3,1.2-5.3,3.5-6.6c2.3-1.4,5-2.1,8.1-2.1
		c2.8,0,5.4,0.7,7.9,2.1c2.4,1.4,3.7,3.6,3.7,6.6v104.3h101.1V92.5c0-3,1.2-5.3,3.5-6.6c2.3-1.4,5-2.1,8.1-2.1
		c2.8,0,5.4,0.7,7.9,2.1c2.4,1.4,3.7,3.6,3.7,6.6v238c0,3-1.2,5.3-3.7,6.8c-2.5,1.5-5.1,2.3-7.9,2.3c-3,0-5.7-0.8-8.1-2.3
		c-2.3-1.5-3.5-3.8-3.5-6.8V217.1h-101.1v113.4c0,3-1.2,5.3-3.7,6.8C1561.8,338.9,1559.2,339.6,1556.4,339.6z"/>
</g>
<g>
	<polygon class="st0" points="332.3,124.9 187.4,40.4 41.7,123.6 40.9,291.4 185.9,375.9 331.5,292.7 	"/>
	<circle class="st1" cx="187.4" cy="42.3" r="36.8"/>
	<circle class="st2" cx="331.2" cy="126" r="36.8"/>
	<circle class="st1" cx="329.7" cy="291.1" r="36.8"/>
	<circle class="st1" cx="42.5" cy="291.1" r="36.8"/>
	<circle class="st2" cx="41.7" cy="125" r="36.8"/>
	<circle class="st2" cx="186.5" cy="374.6" r="36.8"/>
</g>
</svg>
