<?xml version="1.0" encoding="utf-8"?>
<!-- Generator: Adobe Illustrator 23.0.2, SVG Export Plug-In . SVG Version: 6.00 Build 0)  -->
<svg version="1.1" id="Layer_1" xmlns="http://www.w3.org/2000/svg" xmlns:xlink="http://www.w3.org/1999/xlink" x="0px" y="0px"
	 viewBox="0 0 1991.4 416.9" enable-background="new 0 0 1991.4 416.9" xml:space="preserve">
<g>
	<path d="M475.1,320.1c-8.2,0-15.8-1.5-22.8-4.5c-7-3-13.1-7.2-18.4-12.4s-9.4-11.4-12.4-18.4c-3-7-4.5-14.6-4.5-22.8V153.5
		c0-7.9,1.5-15.5,4.5-22.6c3-7.1,7.2-13.3,12.4-18.6s11.4-9.4,18.4-12.4c7-3,14.6-4.6,22.8-4.6h85.4c7.9,0,15.5,1.5,22.6,4.6
		c7.1,3,13.3,7.2,18.5,12.4s9.4,11.4,12.4,18.6c3,7.1,4.5,14.6,4.5,22.6V262c0,8.2-1.5,15.8-4.5,22.8c-3,7-7.2,13.1-12.4,18.4
		s-11.4,9.4-18.5,12.4c-7.1,3-14.6,4.5-22.6,4.5H475.1z M438,262c0,5.1,1,9.9,3,14.3c2,4.4,4.7,8.3,8.1,11.7c3.4,3.4,7.3,6.1,11.7,8
		c4.4,2,9.2,3,14.3,3h85.4c5.1,0,10-1,14.5-3c4.5-2,8.5-4.7,11.7-8c3.3-3.4,5.9-7.3,7.9-11.7c2-4.4,3-9.2,3-14.3V153.5
		c0-5.1-1-9.9-3-14.4c-2-4.4-4.6-8.3-7.9-11.7c-3.3-3.4-7.2-6.1-11.7-8.1c-4.6-2-9.4-3-14.5-3h-85.4c-5.1,0-9.9,1-14.3,3
		c-4.4,2-8.3,4.7-11.7,8.1c-3.4,3.4-6.1,7.3-8.1,11.7c-2,4.4-3,9.2-3,14.4V262z"/>
	<path d="M686.8,320.1h-21V95.4h118.7c8.6,0,16.7,1.6,24.1,4.9c7.5,3.3,14,7.7,19.6,13.3c5.6,5.6,10,12.1,13.3,19.6
		c3.3,7.5,4.9,15.4,4.9,23.8v163.1h-21V157c0-5.6-1.1-10.9-3.3-15.8c-2.2-4.9-5.1-9.2-8.8-12.9c-3.6-3.7-7.9-6.7-13-8.8
		c-5-2.1-10.3-3.2-15.9-3.2h-97.7V320.1z"/>
	<path d="M1037.2,320.1H894V218.2v-21v-42c0-8.2,1.6-15.9,4.7-23.1c3.2-7.2,7.4-13.6,12.8-19.1c5.4-5.5,11.7-9.8,19.1-13
		c7.3-3.1,15.1-4.7,23.3-4.7h83.3v21h-83.3c-5.4,0-10.4,1.1-15,3.2c-4.7,2.1-8.8,4.9-12.3,8.4s-6.3,7.6-8.4,12.3
		c-2.1,4.7-3.2,9.7-3.2,15v42h101.2v21H915v80.8h122.2V320.1z"/>
	<path d="M1106.5,320.1h-21V155.2c0-8.2,1.6-15.9,4.7-23.1c3.2-7.2,7.4-13.6,12.8-19.1c5.4-5.5,11.7-9.8,19.1-13
		c7.3-3.1,15.1-4.7,23.3-4.7h119.4v105.7v21v98h-21v-98h-117.3v-21h117.3v-84.7h-98.4c-5.4,0-10.4,1.1-15,3.2
		c-4.7,2.1-8.8,4.9-12.3,8.4s-6.3,7.6-8.4,12.3c-2.1,4.7-3.2,9.7-3.2,15V320.1z"/>
	<path d="M1487.5,283.8c-3.2,7.1-7.4,13.4-12.8,18.7c-5.4,5.4-11.6,9.6-18.7,12.8c-7.1,3.1-14.8,4.7-22.9,4.7h-120.4V95.4h21v203.7
		h99.4c5.1,0,10-1,14.7-3c4.7-2,8.8-4.7,12.3-8.2s6.2-7.5,8.2-12.1c2-4.6,3-9.5,3-14.9V95.4h21v165.6
		C1492.2,269.1,1490.6,276.7,1487.5,283.8z"/>
	<path d="M1635.3,116.4h-95.5v-21h135.1h10.5h59.5v21h-59.5h-10.5c-7.5,0-13.8,2.6-18.9,7.7c-5.1,5.1-7.7,11.4-7.7,18.9v177.1h-21.3
		V143C1626.9,133.4,1629.7,124.5,1635.3,116.4z"/>
	<path d="M1813.5,95.4v224.7h-21V95.4H1813.5z M1951.7,320.1V218.6h-118.3v-21h118.3V95.4h21v102.2v21v101.5H1951.7z"/>
</g>
<g>
	<polygon fill="none" stroke="#010101" stroke-width="12" stroke-miterlimit="10" points="325.4,129.4 180.5,44.9 34.8,128.1 
		34.1,295.9 179,380.4 324.7,297.2 	"/>
	<circle fill="#010101" cx="324.6" cy="130.7" r="31.2"/>
	<circle fill="#010101" cx="34.8" cy="128.9" r="31.2"/>
	<circle fill="#010101" cx="178.8" cy="379.3" r="31.2"/>
	<circle fill="#009444" cx="180.4" cy="45.4" r="31.2"/>
	<circle fill="#009444" cx="34.8" cy="295.3" r="31.2"/>
	<circle fill="#009444" cx="323.7" cy="297.5" r="31.2"/>
</g>
</svg>
