<?xml version="1.0" encoding="utf-8"?>
<!-- Generator: Adobe Illustrator 23.0.2, SVG Export Plug-In . SVG Version: 6.00 Build 0)  -->
<svg version="1.1" id="Layer_1" xmlns="http://www.w3.org/2000/svg" xmlns:xlink="http://www.w3.org/1999/xlink" x="0px" y="0px"
	 viewBox="0 0 2437.9 574.2" enable-background="new 0 0 2437.9 574.2" xml:space="preserve">
<g>
	<path d="M596.1,308.4c0,31.3-11.2,57.9-33.6,80.1c-22.4,22.1-49.4,33.2-80.9,33.2c-31.9,0-59-11.1-81.3-33.3
		c-22.3-22.2-33.4-48.9-33.4-80c0-31.3,11.1-58,33.4-80.2c22.3-22.2,49.4-33.3,81.3-33.3c31.6,0,58.6,11.1,80.9,33.2
		C584.9,250.2,596.1,277,596.1,308.4z M575.4,308.4c0-25.7-9.2-47.6-27.5-65.7s-40.5-27.1-66.5-27.1c-26,0-48.2,9.1-66.5,27.2
		c-18.3,18.2-27.5,40-27.5,65.6c0,25.4,9.2,47.2,27.5,65.4c18.3,18.2,40.5,27.3,66.5,27.3c26,0,48.2-9.1,66.5-27.2
		C566.2,355.8,575.4,333.9,575.4,308.4z"/>
	<path d="M715.3,202.2v31c14.3-14.5,27.3-24.5,38.8-30c11.6-5.5,24.6-8.3,39.1-8.3c15.6,0,29.9,3.3,42.7,10
		c9.1,4.9,17.4,13,24.8,24.3c7.4,11.3,11.1,22.9,11.1,34.8v129.2h17.3c4.9,0,8.4,0.9,10.5,2.8c2.1,1.9,3.2,4.4,3.2,7.4
		c0,2.9-1.1,5.4-3.2,7.3c-2.1,2-5.6,2.9-10.5,2.9h-54.9c-5,0-8.6-1-10.7-2.9c-2.1-2-3.2-4.4-3.2-7.3c0-3.1,1.1-5.6,3.2-7.4
		c2.1-1.9,5.7-2.8,10.7-2.8h17.1V267.4c0-14.5-5.3-26.7-15.9-36.7c-10.6-10-24.7-15-42.5-15c-13.5,0-25.2,2.7-35.2,8.2
		c-9.9,5.5-24.1,19-42.5,40.6v128.7h23.2c4.9,0,8.4,0.9,10.5,2.8c2.1,1.9,3.2,4.4,3.2,7.4c0,2.9-1.1,5.4-3.2,7.3
		c-2.1,2-5.6,2.9-10.5,2.9h-66.9c-4.9,0-8.4-1-10.5-2.9c-2.1-2-3.2-4.4-3.2-7.3c0-3.1,1.1-5.6,3.2-7.4c2.1-1.9,5.6-2.8,10.5-2.8
		h23.2V222.9h-17.3c-4.9,0-8.4-1-10.5-2.9c-2.1-2-3.2-4.5-3.2-7.6c0-2.9,1.1-5.4,3.2-7.3c2.1-2,5.6-2.9,10.5-2.9H715.3z"/>
	<path d="M1192.6,312.8h-209c3.6,26.5,14.7,47.9,33.3,64.1c18.6,16.2,41.7,24.3,69.2,24.3c15.3,0,31.3-2.5,48.1-7.6
		c16.8-5,30.4-11.7,41-20c3.1-2.4,5.8-3.7,8.1-3.7c2.6,0,4.9,1,6.8,3.1c2,2,2.9,4.4,2.9,7.2c0,2.8-1.3,5.5-3.9,8.1
		c-7.8,8.1-21.7,15.7-41.6,22.8c-19.9,7.1-40.4,10.6-61.4,10.6c-35.2,0-64.5-11.5-88-34.5c-23.5-23-35.3-50.9-35.3-83.6
		c0-29.8,11-55.3,33.1-76.7c22.1-21.3,49.4-32,81.9-32c33.5,0,61.1,10.9,82.8,32.8C1182.2,249.6,1192.9,277.9,1192.6,312.8z
		 M1171.8,292c-4.1-22.6-14.8-41-32.1-55.2s-38-21.2-61.9-21.2s-44.5,7-61.8,21c-17.3,14-28,32.5-32.2,55.4H1171.8z"/>
	<path d="M1440.6,413.6v-29.5c-29.8,25.1-61.6,37.6-95.5,37.6c-24.6,0-43.8-6.2-57.6-18.7c-13.8-12.5-20.8-27.7-20.8-45.8
		c0-19.9,9.1-37.2,27.3-52c18.2-14.8,44.8-22.2,79.8-22.2c9.4,0,19.7,0.6,30.8,1.8c11.1,1.2,23,3.1,35.9,5.7v-33.2
		c0-11.2-5.2-21-15.6-29.3c-10.4-8.3-26-12.5-46.9-12.5c-16,0-38.3,4.6-67.1,13.9c-5.2,1.6-8.5,2.4-10,2.4c-2.6,0-4.8-1-6.7-2.9
		c-1.9-2-2.8-4.4-2.8-7.3c0-2.8,0.8-5,2.4-6.6c2.3-2.4,11.5-5.8,27.6-10c25.4-6.8,44.6-10.3,57.6-10.3c25.9,0,46.1,6.4,60.5,19.2
		c14.5,12.8,21.7,27.2,21.7,43.3v135.7h27.3c5,0,8.6,0.9,10.7,2.8c2.1,1.9,3.2,4.4,3.2,7.4c0,2.9-1.1,5.4-3.2,7.3
		c-2.1,2-5.7,2.9-10.7,2.9H1440.6z M1440.6,311.6c-9.6-2.8-19.8-4.8-30.5-6.1c-10.7-1.3-22.1-2-33.9-2c-29.8,0-53.1,6.4-69.8,19.3
		c-12.7,9.6-19,21.1-19,34.4c0,12.4,4.8,22.8,14.5,31.3c9.7,8.5,23.8,12.7,42.4,12.7c17.7,0,34.2-3.5,49.4-10.6
		c15.2-7.1,30.9-18.3,47-33.8V311.6z"/>
	<path d="M1751.9,413.6v-30c-28,25.4-58.3,38.1-90.8,38.1c-20,0-35.2-5.5-45.7-16.4c-13.5-14.3-20.3-31-20.3-50V222.9h-27.6
		c-4.9,0-8.4-1-10.5-2.9c-2.1-2-3.2-4.5-3.2-7.6c0-2.9,1.1-5.4,3.2-7.3c2.1-2,5.6-2.9,10.5-2.9h48.1v153.1c0,13.3,4.2,24.3,12.7,33
		c8.5,8.6,19,12.9,31.7,12.9c33.4,0,64-15.3,91.8-45.9V222.9h-37.8c-4.9,0-8.4-1-10.5-2.9c-2.1-2-3.2-4.5-3.2-7.6
		c0-2.9,1.1-5.4,3.2-7.3c2.1-2,5.6-2.9,10.5-2.9h58.3v190.9h17.3c4.9,0,8.4,0.9,10.5,2.8c2.1,1.9,3.2,4.4,3.2,7.4
		c0,2.9-1.1,5.4-3.2,7.3c-2.1,2-5.6,2.9-10.5,2.9H1751.9z"/>
	<path d="M1939.6,202.2H2051c4.9,0,8.4,1,10.5,2.9c2.1,2,3.2,4.5,3.2,7.6c0,2.9-1.1,5.4-3.2,7.3c-2.1,2-5.6,2.9-10.5,2.9h-111.3
		v136.5c0,11.9,4.8,21.8,14.3,29.8c9.5,8,23.5,12,41.9,12c13.8,0,28.8-2.1,44.9-6.2c16.1-4.2,28.6-8.8,37.6-14
		c3.3-2.1,5.9-3.2,8.1-3.2c2.6,0,4.9,1,6.8,3.1c2,2,2.9,4.4,2.9,7.2c0,2.4-1.1,4.7-3.2,6.8c-5.2,5.4-17.9,11.2-38,17.5
		c-20.1,6.3-39.3,9.4-57.7,9.4c-23.9,0-43-5.6-57.1-16.8s-21.2-26.4-21.2-45.4V222.9H1881c-4.9,0-8.4-1-10.5-2.9
		c-2.1-2-3.2-4.5-3.2-7.6c0-2.9,1.1-5.4,3.2-7.3c2.1-2,5.6-2.9,10.5-2.9h37.8v-60.5c0-4.9,1-8.4,2.9-10.5c2-2.1,4.4-3.2,7.3-3.2
		c3.1,0,5.6,1.1,7.6,3.2c2,2.1,2.9,5.6,2.9,10.5V202.2z"/>
	<path d="M2214.3,107.2v126.2c13-14.2,25.5-24.1,37.5-29.9c12-5.8,25.3-8.7,40.2-8.7c15.9,0,29.5,2.8,40.6,8.4
		c11.1,5.6,20.5,14.2,28,25.9c7.5,11.6,11.2,23.9,11.2,36.7v127.2h22.9c5,0,8.6,0.9,10.6,2.8c2,1.9,3.1,4.4,3.1,7.4
		c0,2.9-1,5.4-3.1,7.3c-2,2-5.6,2.9-10.6,2.9h-66.7c-5,0-8.6-1-10.7-2.9c-2.1-2-3.2-4.4-3.2-7.3c0-3.1,1.1-5.6,3.2-7.4
		c2.1-1.9,5.7-2.8,10.7-2.8h22.9V267.4c0-14.8-5.3-27.2-16-37.1c-10.7-9.9-25.5-14.9-44.6-14.9c-15,0-27.8,3.7-38.3,11
		c-7.7,5.2-20.3,17.5-37.8,36.9v129.9h23.2c4.9,0,8.4,0.9,10.5,2.8c2.1,1.9,3.2,4.4,3.2,7.4c0,2.9-1.1,5.4-3.2,7.3
		c-2.1,2-5.6,2.9-10.5,2.9h-66.9c-4.9,0-8.4-1-10.5-2.9c-2.1-2-3.2-4.4-3.2-7.3c0-3.1,1.1-5.6,3.2-7.4c2.1-1.9,5.6-2.8,10.5-2.8
		h23.2V128h-27.6c-4.9,0-8.4-1-10.5-2.9c-2.1-2-3.2-4.5-3.2-7.6c0-2.9,1.1-5.4,3.2-7.3c2.1-2,5.6-2.9,10.5-2.9H2214.3z"/>
</g>
<g>
	<g>
		<polygon fill="none" stroke="#010101" stroke-width="6.7113" stroke-miterlimit="10" points="325.4,199.6 180.5,115.1 34.8,198.3 
			34.1,366.1 179,450.7 324.7,367.4 		"/>
		<circle fill="#010101" cx="324.9" cy="200.5" r="16.8"/>
		<circle fill="#009444" cx="324.7" cy="367.4" r="16.8"/>
		<circle fill="#010101" cx="179.5" cy="449.8" r="16.8"/>
		<circle fill="#009444" cx="34.6" cy="365.2" r="16.8"/>
		<circle fill="#009444" cx="180" cy="116" r="16.8"/>
		<circle fill="#010101" cx="34.8" cy="198.3" r="16.8"/>
	</g>
</g>
</svg>
