<?xml version="1.0" encoding="utf-8"?>
<!-- Generator: Adobe Illustrator 23.0.2, SVG Export Plug-In . SVG Version: 6.00 Build 0)  -->
<svg version="1.1" id="Layer_1" xmlns="http://www.w3.org/2000/svg" xmlns:xlink="http://www.w3.org/1999/xlink" x="0px" y="0px"
	 viewBox="0 0 2226.2 416.9" enable-background="new 0 0 2226.2 416.9" xml:space="preserve">
<g>
	<path d="M498.6,337.3c-8.5,0-16.5-1.6-24-4.8c-7.5-3.2-14-7.6-19.6-13.2c-5.6-5.6-10-12.1-13.2-19.6c-3.2-7.5-4.8-15.5-4.8-24
		V142.1c0-8.5,1.6-16.5,4.8-24c3.2-7.5,7.6-14,13.2-19.6c5.6-5.6,12.1-10,19.6-13.2c7.5-3.2,15.5-4.8,24-4.8h97.2
		c8.5,0,16.5,1.6,24,4.8c7.5,3.2,14,7.6,19.6,13.2c5.6,5.6,10,12.1,13.2,19.6c3.2,7.5,4.8,15.5,4.8,24v133.6c0,8.5-1.6,16.5-4.8,24
		c-3.2,7.5-7.6,14-13.2,19.6c-5.6,5.6-12.1,10-19.6,13.2c-7.5,3.2-15.5,4.8-24,4.8H498.6z M451.8,275.7c0,6.4,1.3,12.5,3.8,18.2
		c2.5,5.7,5.9,10.7,10,14.8c4.1,4.1,9.1,7.5,14.8,10c5.7,2.5,11.8,3.8,18.2,3.8h97.2c6.4,0,12.4-1.3,18-3.8
		c5.6-2.5,10.5-5.9,14.8-10c4.3-4.1,7.6-9.1,10-14.8c2.4-5.7,3.6-11.8,3.6-18.2V142.1c0-6.4-1.2-12.4-3.6-18
		c-2.4-5.6-5.7-10.5-10-14.8c-4.3-4.3-9.2-7.6-14.8-10c-5.6-2.4-11.6-3.6-18-3.6h-97.2c-6.4,0-12.5,1.2-18.2,3.6
		c-5.7,2.4-10.7,5.7-14.8,10c-4.1,4.3-7.5,9.2-10,14.8c-2.5,5.6-3.8,11.6-3.8,18V275.7z"/>
	<path d="M736.2,337.3h-14.8V80.5h130.8c9.1,0,17.6,1.7,25.6,5.2c8,3.5,15,8.2,21,14.2s10.7,12.9,14.2,20.8
		c3.5,7.9,5.2,16.3,5.2,25.4v191.2H903V146.1c0-6.9-1.3-13.5-4-19.6c-2.7-6.1-6.3-11.5-11-16c-4.7-4.5-10.1-8.1-16.2-10.8
		c-6.1-2.7-12.7-4-19.6-4h-116V337.3z"/>
	<path d="M1137,337.3H982.2V216.5v-15.2v-56.8c0-8.8,1.7-17.1,5-24.8c3.3-7.7,7.9-14.5,13.8-20.4c5.9-5.9,12.7-10.5,20.4-13.8
		c7.7-3.3,16-5,24.8-5h90.8v15.2h-90.8c-6.9,0-13.3,1.3-19.2,3.8c-5.9,2.5-11.1,6-15.6,10.4c-4.5,4.4-8.1,9.6-10.6,15.6
		c-2.5,6-3.8,12.3-3.8,19v56.8h116v15.2H997v106h140V337.3z"/>
	<path d="M1215.8,337.3H1201V144.5c0-8.8,1.7-17.1,5-24.8c3.3-7.7,7.9-14.5,13.8-20.4c5.9-5.9,12.7-10.5,20.4-13.8
		c7.7-3.3,16-5,24.8-5h131.6v120.8v15.2v120.8h-14.8V216.5h-147.2v-15.2h147.2V95.7H1265c-6.9,0-13.3,1.3-19.2,3.8
		c-5.9,2.5-11.1,6-15.6,10.4c-4.5,4.4-8.1,9.6-10.6,15.6c-2.5,6-3.8,12.3-3.8,19V337.3z"/>
	<path d="M1651.2,298.7c-3.3,7.6-7.8,14.3-13.4,20c-5.6,5.7-12.2,10.3-19.8,13.6c-7.6,3.3-15.8,5-24.6,5h-132.8V80.5h14.8v242h118
		c6.7,0,12.9-1.3,18.6-3.8c5.7-2.5,10.8-6,15.2-10.4c4.4-4.4,7.9-9.5,10.4-15.4c2.5-5.9,3.8-12.1,3.8-18.8V80.5h14.8v193.6
		C1656.2,282.9,1654.5,291.1,1651.2,298.7z"/>
	<path d="M1823.4,111.3c2.4-5.9,5.9-11.1,10.4-15.6h-113.6V80.5h149.2h7.6h68v15.2h-68h-7.6c-4.8,0-9.3,0.9-13.6,2.8
		c-4.3,1.9-7.9,4.3-11,7.4c-3.1,3.1-5.5,6.7-7.4,10.8c-1.9,4.1-2.8,8.6-2.8,13.4v207.2h-14.8V130.1
		C1819.8,123.4,1821,117.1,1823.4,111.3z"/>
	<path d="M2023.8,337.3H2009V80.5h14.8V337.3z M2190.2,216.5h-144.4v-15.2h144.4V80.5h15.2v120.8v15.2v120.8h-15.2V216.5z"/>
</g>
<g>
	<polygon fill="none" stroke="#010101" stroke-width="12" stroke-miterlimit="10" points="325.4,129.4 180.5,44.9 34.8,128.1 
		34.1,295.9 179,380.4 324.7,297.2 	"/>
	<circle fill="#010101" cx="324.6" cy="130.7" r="31.2"/>
	<circle fill="#010101" cx="34.8" cy="128.9" r="31.2"/>
	<circle fill="#010101" cx="178.8" cy="379.3" r="31.2"/>
	<circle fill="#009444" cx="180.4" cy="45.4" r="31.2"/>
	<circle fill="#009444" cx="34.8" cy="295.3" r="31.2"/>
	<circle fill="#009444" cx="323.7" cy="297.5" r="31.2"/>
</g>
</svg>
